<svg width="20" height="20" viewBox="0 0 20 20" fill="none" xmlns="http://www.w3.org/2000/svg">
<path d="M10 11.4584C10.8264 11.4584 11.526 11.172 12.099 10.599C12.6719 10.0261 12.9583 9.32647 12.9583 8.50008C12.9583 7.67369 12.6719 6.97404 12.099 6.40112C11.526 5.82821 10.8264 5.54175 10 5.54175C9.17361 5.54175 8.47396 5.82821 7.90104 6.40112C7.32812 6.97404 7.04167 7.67369 7.04167 8.50008C7.04167 9.32647 7.32812 10.0261 7.90104 10.599C8.47396 11.172 9.17361 11.4584 10 11.4584ZM10 16.3438C10.7778 16.1008 11.4792 15.7154 12.1042 15.1876C12.7292 14.6598 13.2708 14.0522 13.7292 13.3647C13.1458 13.1008 12.5417 12.8977 11.9167 12.7553C11.2917 12.6129 10.6528 12.5417 10 12.5417C9.34722 12.5417 8.70833 12.6129 8.08333 12.7553C7.45833 12.8977 6.85417 13.1008 6.27083 13.3647C6.72917 14.0522 7.27083 14.6598 7.89583 15.1876C8.52083 15.7154 9.22222 16.1008 10 16.3438ZM10 17.7084C9.9225 17.7084 9.84458 17.7049 9.76625 17.698C9.68792 17.6911 9.61653 17.6737 9.55208 17.6459C7.77431 17.0556 6.35243 15.9775 5.28646 14.4115C4.22049 12.8456 3.6875 11.1304 3.6875 9.26604V5.59383C3.6875 5.2955 3.76753 5.02978 3.92758 4.79667C4.08764 4.56357 4.30275 4.39526 4.57292 4.29175L9.48958 2.39591C9.65972 2.32647 9.82986 2.29175 10 2.29175C10.1701 2.29175 10.3403 2.32647 10.5104 2.39591L15.4271 4.29175C15.6973 4.39526 15.9124 4.56357 16.0724 4.79667C16.2325 5.02978 16.3125 5.2955 16.3125 5.59383V9.26604C16.3125 11.1304 15.7795 12.8456 14.7135 14.4115C13.6476 15.9775 12.2257 17.0556 10.4479 17.6459C10.3835 17.6737 10.3121 17.6911 10.2338 17.698C10.1554 17.7049 10.0775 17.7084 10 17.7084Z" fill="#555555"/>
</svg>
