<svg width="20" height="20" viewBox="0 0 20 20" fill="none" xmlns="http://www.w3.org/2000/svg">
<path d="M9.30208 17.6249L3.88542 14.4791C3.66181 14.3557 3.48958 14.1886 3.36875 13.9779C3.24792 13.7671 3.1875 13.5349 3.1875 13.2812V6.71867C3.1875 6.46495 3.24792 6.23097 3.36875 6.01675C3.48958 5.80253 3.66181 5.63372 3.88542 5.51034L9.28125 2.39575C9.50347 2.27075 9.74306 2.20825 10 2.20825C10.2569 2.20825 10.4965 2.27075 10.7188 2.39575L16.1146 5.51034C16.3382 5.63372 16.5104 5.80253 16.6313 6.01675C16.7521 6.23097 16.8125 6.46495 16.8125 6.71867V13.2812C16.8125 13.5349 16.7521 13.7689 16.6313 13.9831C16.5104 14.1973 16.3382 14.3661 16.1146 14.4895L10.6979 17.6249C10.4739 17.7499 10.2408 17.8124 9.99862 17.8124C9.75649 17.8124 9.52431 17.7499 9.30208 17.6249ZM9.30208 10.427V15.9895L10 16.3958L10.6979 15.9895V10.4166L15.4167 7.69784V6.72909L14.8438 6.40617L10 9.20825L5.13542 6.40617L4.58333 6.72909V7.68742L9.30208 10.427Z" fill="#555555"/>
</svg>
