<svg width="20" height="20" viewBox="0 0 20 20" fill="none" xmlns="http://www.w3.org/2000/svg">
<path d="M3.85425 8.95825C3.67751 8.95825 3.51874 8.88785 3.37794 8.74704C3.23714 8.60625 3.16675 8.44749 3.16675 8.27075V3.83325C3.16675 3.63846 3.23714 3.47518 3.37794 3.34342C3.51874 3.21164 3.67751 3.14575 3.85425 3.14575H8.29175C8.48654 3.14575 8.64982 3.21164 8.7816 3.34342C8.91337 3.47518 8.97925 3.63846 8.97925 3.83325V8.27075C8.97925 8.44749 8.91337 8.60625 8.7816 8.74704C8.64982 8.88785 8.48654 8.95825 8.29175 8.95825H3.85425ZM11.7292 8.95825C11.5525 8.95825 11.3937 8.88785 11.253 8.74704C11.1122 8.60625 11.0417 8.44749 11.0417 8.27075V3.83325C11.0417 3.63846 11.1122 3.47518 11.253 3.34342C11.3937 3.21164 11.5525 3.14575 11.7292 3.14575H16.1667C16.3615 3.14575 16.5248 3.21164 16.6566 3.34342C16.7884 3.47518 16.8542 3.63846 16.8542 3.83325V8.27075C16.8542 8.44749 16.7884 8.60625 16.6566 8.74704C16.5248 8.88785 16.3615 8.95825 16.1667 8.95825H11.7292ZM3.85425 16.8333C3.67751 16.8333 3.51874 16.7629 3.37794 16.6221C3.23714 16.4813 3.16675 16.3225 3.16675 16.1458V11.7083C3.16675 11.5135 3.23714 11.3502 3.37794 11.2184C3.51874 11.0866 3.67751 11.0208 3.85425 11.0208H8.29175C8.48654 11.0208 8.64982 11.0866 8.7816 11.2184C8.91337 11.3502 8.97925 11.5135 8.97925 11.7083V16.1458C8.97925 16.3225 8.91337 16.4813 8.7816 16.6221C8.64982 16.7629 8.48654 16.8333 8.29175 16.8333H3.85425ZM13.948 16.8333C13.7744 16.8333 13.6147 16.7603 13.4688 16.6145C13.323 16.4687 13.2501 16.3089 13.2501 16.1353V14.6249H11.7416C11.5528 14.6249 11.389 14.5585 11.2501 14.4255C11.1112 14.2926 11.0417 14.1279 11.0417 13.9314C11.0417 13.741 11.1147 13.5763 11.2605 13.4374C11.4063 13.2985 11.5661 13.2291 11.7397 13.2291H13.2501V11.6999C13.2501 11.5083 13.317 11.3471 13.4507 11.2166C13.5845 11.086 13.7503 11.0208 13.948 11.0208C14.1393 11.0208 14.3033 11.0892 14.4399 11.226C14.5764 11.3628 14.6447 11.527 14.6447 11.7187V13.2291H16.1714C16.3628 13.2291 16.5244 13.2935 16.6563 13.4224C16.7883 13.5513 16.8542 13.7195 16.8542 13.927C16.8542 14.1006 16.7858 14.2603 16.649 14.4062C16.5122 14.552 16.348 14.6249 16.1563 14.6249H14.6459V16.1334C14.6459 16.3222 14.5815 16.486 14.4526 16.6249C14.3237 16.7638 14.1555 16.8333 13.948 16.8333Z" fill="#555555"/>
</svg>
