<svg width="20" height="20" viewBox="0 0 20 20" fill="none" xmlns="http://www.w3.org/2000/svg">
<path d="M7.79083 14.8333H12.2129C12.4043 14.8333 12.5694 14.7653 12.7083 14.6293C12.8472 14.4933 12.9167 14.3301 12.9167 14.1397C12.9167 13.9493 12.8483 13.7846 12.7117 13.6458C12.5751 13.5069 12.411 13.4374 12.2196 13.4374H7.79756C7.60613 13.4374 7.44097 13.5054 7.30208 13.6414C7.16319 13.7773 7.09375 13.9405 7.09375 14.1309C7.09375 14.3214 7.16207 14.486 7.29871 14.6249C7.43536 14.7638 7.5994 14.8333 7.79083 14.8333ZM7.79083 11.8749H12.2129C12.4043 11.8749 12.5694 11.8069 12.7083 11.671C12.8472 11.535 12.9167 11.3718 12.9167 11.1814C12.9167 10.991 12.8483 10.8263 12.7117 10.6874C12.5751 10.5485 12.411 10.4791 12.2196 10.4791H7.79756C7.60613 10.4791 7.44097 10.5471 7.30208 10.683C7.16319 10.819 7.09375 10.9822 7.09375 11.1726C7.09375 11.363 7.16207 11.5277 7.29871 11.6666C7.43536 11.8055 7.5994 11.8749 7.79083 11.8749ZM5.57744 17.7916C5.19248 17.7916 4.86458 17.6551 4.59375 17.3822C4.32292 17.1093 4.1875 16.7805 4.1875 16.3958V3.60409C4.1875 3.21936 4.32396 2.89054 4.59687 2.61763C4.86979 2.34471 5.19861 2.20825 5.58333 2.20825H11.4167C11.5972 2.20825 11.776 2.2395 11.9531 2.302C12.1302 2.3645 12.2847 2.46867 12.4167 2.6145L15.3958 5.60409C15.5417 5.73603 15.6476 5.88881 15.7135 6.06242C15.7795 6.23603 15.8125 6.41311 15.8125 6.59367V16.3958C15.8125 16.7805 15.676 17.1093 15.4029 17.3822C15.1298 17.6551 14.8008 17.7916 14.4158 17.7916H5.57744ZM11.0625 6.26034C11.0625 6.452 11.1309 6.61624 11.2677 6.75304C11.4045 6.88985 11.5688 6.95825 11.7604 6.95825H14.4167L11.0625 3.60409V6.26034Z" fill="#555555"/>
</svg>
