<?xml version="1.0" standalone="no"?>
<!DOCTYPE svg PUBLIC "-//W3C//DTD SVG 20010904//EN"
 "http://www.w3.org/TR/2001/REC-SVG-20010904/DTD/svg10.dtd">
<svg version="1.0" xmlns="http://www.w3.org/2000/svg"
 width="512.000000pt" height="512.000000pt" viewBox="0 0 512.000000 512.000000"
 preserveAspectRatio="xMidYMid meet">

<g transform="translate(0.000000,512.000000) scale(0.100000,-0.100000)"
fill="#000000" stroke="none">
<path d="M2031 4972 c-67 -36 -90 -121 -48 -183 50 -76 141 -87 203 -25 43 43
52 92 28 143 -37 74 -114 102 -183 65z"/>
<path d="M3109 4850 c-68 -20 -102 -64 -101 -133 2 -132 187 -174 248 -56 50
97 -45 219 -147 189z"/>
<path d="M4474 4350 c-105 -68 -54 -240 71 -240 130 0 183 158 79 239 -35 28
-108 28 -150 1z"/>
<path d="M1410 4142 c-78 -38 -92 -149 -27 -209 46 -42 94 -51 143 -27 53 27
77 64 77 118 0 52 -21 89 -66 116 -40 25 -81 25 -127 2z"/>
<path d="M2490 4026 c-204 -58 -359 -253 -360 -452 0 -60 28 -94 77 -94 52 0
73 26 84 105 12 86 40 147 94 200 57 58 126 89 206 93 135 8 244 -51 308 -168
34 -61 36 -70 36 -155 0 -78 -4 -97 -27 -140 -35 -68 -92 -122 -158 -154 l-55
-26 -950 -5 c-522 -3 -951 -6 -952 -8 -1 -1 -11 -12 -23 -24 -27 -30 -26 -73
5 -103 l24 -25 938 0 c1025 0 996 -1 1107 58 65 34 164 133 198 198 147 275
-3 620 -306 700 -63 17 -185 17 -246 0z"/>
<path d="M3730 3868 c-44 -30 -60 -61 -60 -117 0 -37 5 -49 39 -82 34 -34 44
-39 86 -39 85 0 135 50 135 134 0 38 -6 52 -33 82 -28 30 -42 37 -83 41 -40 4
-55 0 -84 -19z"/>
<path d="M4427 3305 c-220 -60 -370 -264 -358 -487 2 -46 73 -74 121 -48 21
11 40 67 40 116 0 48 56 149 107 193 96 85 247 106 358 49 62 -32 129 -103
158 -166 33 -73 30 -190 -6 -264 -35 -71 -110 -140 -183 -167 -55 -21 -59 -21
-2325 -21 -1707 0 -2276 -3 -2292 -12 -52 -27 -62 -83 -22 -123 l24 -25 2283
0 c2020 0 2291 2 2343 15 154 41 274 152 335 310 32 82 33 233 2 317 -57 156
-182 272 -337 313 -71 18 -182 18 -248 0z"/>
<path d="M3733 1920 c-91 -55 -83 -189 13 -232 94 -41 184 18 184 119 0 102
-111 166 -197 113z"/>
<path d="M794 1778 c-43 -20 -56 -81 -25 -119 l19 -24 949 -5 c889 -5 951 -6
995 -23 67 -26 141 -97 175 -165 24 -49 28 -69 28 -142 0 -73 -4 -93 -28 -142
-55 -112 -165 -180 -292 -181 -64 0 -83 4 -139 32 -106 52 -186 167 -186 267
0 90 -79 136 -135 79 -20 -19 -25 -34 -25 -72 0 -170 111 -339 272 -417 327
-157 699 78 698 442 0 170 -107 345 -258 421 -123 62 -96 61 -1107 60 -612 0
-927 -4 -941 -11z"/>
<path d="M4934 1696 c-99 -44 -107 -172 -15 -233 111 -74 251 60 181 174 -36
60 -107 86 -166 59z"/>
<path d="M3871 1302 c-67 -37 -90 -121 -48 -183 47 -72 134 -86 197 -33 118
100 -13 291 -149 216z"/>
<path d="M4594 937 c-91 -83 -31 -227 93 -227 77 0 144 86 123 159 -20 71 -60
101 -136 101 -36 0 -51 -6 -80 -33z"/>
<path d="M1673 760 c-60 -36 -81 -121 -46 -181 17 -28 84 -69 114 -69 33 1 99
40 113 69 19 36 20 97 3 131 -32 63 -122 88 -184 50z"/>
<path d="M3765 449 c-144 -43 -115 -259 35 -259 100 0 162 109 115 200 -25 48
-95 75 -150 59z"/>
<path d="M2664 394 c-131 -45 -109 -236 29 -251 131 -15 198 141 99 230 -31
28 -83 36 -128 21z"/>
</g>
</svg>
