<?xml version="1.0" standalone="no"?>
<!DOCTYPE svg PUBLIC "-//W3C//DTD SVG 20010904//EN"
 "http://www.w3.org/TR/2001/REC-SVG-20010904/DTD/svg10.dtd">
<svg version="1.0" xmlns="http://www.w3.org/2000/svg"
 width="512.000000pt" height="512.000000pt" viewBox="0 0 512.000000 512.000000"
 preserveAspectRatio="xMidYMid meet">

<g transform="translate(0.000000,512.000000) scale(0.100000,-0.100000)"
fill="#000000" stroke="none">
<path d="M1020 5104 c-106 -28 -191 -101 -239 -204 l-26 -55 -3 -1097 -2
-1098 -150 0 c-171 0 -208 -9 -240 -62 -20 -32 -20 -48 -20 -813 0 -765 0
-781 20 -813 32 -53 69 -62 239 -62 l150 0 3 -312 3 -313 26 -55 c32 -69 76
-119 137 -159 102 -65 -6 -62 1873 -59 l1704 3 57 23 c75 30 147 96 189 174
l34 63 3 1686 2 1686 -887 742 -887 741 -965 -1 c-817 0 -974 -3 -1021 -15z
m1971 -750 c-2 -374 0 -690 3 -702 l7 -22 833 0 c650 0 836 -3 849 -12 15 -12
17 -145 23 -1648 7 -1529 6 -1639 -10 -1687 -26 -79 -76 -137 -148 -172 l-63
-31 -1730 2 -1730 3 -40 22 c-50 26 -118 99 -142 150 -15 33 -18 78 -21 341
l-3 302 1496 0 c1646 0 1545 -4 1585 62 20 32 20 48 20 813 0 765 0 781 -20
813 -40 66 61 62 -1585 62 l-1495 0 2 1088 c3 1222 -4 1117 80 1208 41 45 79
70 128 85 14 4 462 7 995 6 l970 -2 -4 -681z m-1331 -2294 l0 -80 -190 0 -190
0 0 -60 0 -60 175 0 175 0 0 -75 0 -75 -175 0 -175 0 0 -70 0 -70 195 0 195 0
0 -85 0 -85 -315 0 -315 0 0 363 c0 200 3 367 7 370 3 4 143 7 310 7 l303 0 0
-80z m395 -32 c33 -59 62 -108 65 -108 3 0 32 48 64 106 33 58 64 108 71 110
6 3 64 3 128 2 l117 -3 -115 -178 -115 -179 125 -189 125 -190 -132 3 -132 3
-69 113 -70 113 -71 -116 -71 -115 -127 0 c-71 0 -128 2 -128 5 0 3 56 89 124
191 l124 186 -114 174 c-63 96 -114 177 -114 180 0 2 57 3 127 2 l128 -3 60
-107z m1145 32 l0 -80 -190 0 -190 0 0 -60 0 -60 180 0 180 0 0 -75 0 -75
-180 0 -180 0 0 -70 0 -70 198 -2 197 -3 3 -82 3 -83 -316 0 -315 0 0 370 0
370 305 0 305 0 0 -80z"/>
</g>
</svg>
