<?xml version="1.0" encoding="UTF-8"?>
<!DOCTYPE svg PUBLIC "-//W3C//DTD SVG 1.1//EN" "http://www.w3.org/Graphics/SVG/1.1/DTD/svg11.dtd">
<svg xmlns="http://www.w3.org/2000/svg" version="1.1" width="512px" height="512px" style="shape-rendering:geometricPrecision; text-rendering:geometricPrecision; image-rendering:optimizeQuality; fill-rule:evenodd; clip-rule:evenodd" xmlns:xlink="http://www.w3.org/1999/xlink">
<g><path style="opacity:0.923" fill="#464747" d="M 283.5,23.5 C 294.86,22.71 298.193,27.5434 293.5,38C 282.964,41.997 278.464,38.497 280,27.5C 280.69,25.6498 281.856,24.3164 283.5,23.5 Z"/></g>
<g><path style="opacity:0.923" fill="#464747" d="M 195.5,39.5 C 206.86,38.71 210.193,43.5434 205.5,54C 194.964,57.997 190.464,54.497 192,43.5C 192.69,41.6498 193.856,40.3164 195.5,39.5 Z"/></g>
<g><path style="opacity:0.923" fill="#464747" d="M 379.5,47.5 C 390.86,46.71 394.193,51.5434 389.5,62C 378.964,65.997 374.464,62.497 376,51.5C 376.69,49.6498 377.856,48.3164 379.5,47.5 Z"/></g>
<g><path style="opacity:0.936" fill="#464747" d="M 318.5,63.5 C 331.32,62.1527 336.82,67.8194 335,80.5C 331.345,87.0702 325.845,89.2368 318.5,87C 311.93,83.3449 309.763,77.8449 312,70.5C 313.694,67.6424 315.861,65.309 318.5,63.5 Z"/></g>
<g><path style="opacity:0.969" fill="#464747" d="M 68.5,79.5 C 88.6499,77.4828 97.4833,86.4828 95,106.5C 89.6574,117.752 80.8241,121.919 68.5,119C 57.2477,113.657 53.0811,104.824 56,92.5C 58.3531,86.3154 62.5198,81.982 68.5,79.5 Z"/></g>
<g><path style="opacity:0.936" fill="#464747" d="M 150.5,95.5 C 163.32,94.1527 168.82,99.8194 167,112.5C 163.345,119.07 157.845,121.237 150.5,119C 143.93,115.345 141.763,109.845 144,102.5C 145.694,99.6424 147.861,97.309 150.5,95.5 Z"/></g>
<g><path style="opacity:0.969" fill="#464747" d="M 252.5,95.5 C 272.65,93.4828 281.483,102.483 279,122.5C 273.657,133.752 264.824,137.919 252.5,135C 241.248,129.657 237.081,120.824 240,108.5C 242.353,102.315 246.52,97.982 252.5,95.5 Z"/></g>
<g><path style="opacity:0.956" fill="#454747" d="M 409.5,103.5 C 428.778,102.61 435.278,111.276 429,129.5C 422.055,136.069 414.222,137.236 405.5,133C 398.931,126.055 397.764,118.222 402,109.5C 404.114,106.879 406.614,104.879 409.5,103.5 Z"/></g>
<g><path style="opacity:0.936" fill="#464747" d="M 342.5,127.5 C 355.32,126.153 360.82,131.819 359,144.5C 355.345,151.07 349.845,153.237 342.5,151C 335.93,147.345 333.763,141.845 336,134.5C 337.694,131.642 339.861,129.309 342.5,127.5 Z"/></g>
<g><path style="opacity:0.923" fill="#464747" d="M 195.5,143.5 C 206.86,142.71 210.193,147.543 205.5,158C 194.964,161.997 190.464,158.497 192,147.5C 192.69,145.65 193.856,144.316 195.5,143.5 Z"/></g>
<g><path style="opacity:0.923" fill="#464747" d="M 35.5,167.5 C 46.8598,166.71 50.1931,171.543 45.5,182C 34.9641,185.997 30.4641,182.497 32,171.5C 32.6897,169.65 33.8564,168.316 35.5,167.5 Z"/></g>
<g><path style="opacity:0.923" fill="#464747" d="M 99.5,167.5 C 110.86,166.71 114.193,171.543 109.5,182C 98.9641,185.997 94.4641,182.497 96,171.5C 96.6897,169.65 97.8564,168.316 99.5,167.5 Z"/></g>
<g><path style="opacity:0.936" fill="#464747" d="M 286.5,167.5 C 299.32,166.153 304.82,171.819 303,184.5C 299.345,191.07 293.845,193.237 286.5,191C 279.93,187.345 277.763,181.845 280,174.5C 281.694,171.642 283.861,169.309 286.5,167.5 Z"/></g>
<g><path style="opacity:0.936" fill="#464747" d="M 150.5,191.5 C 163.32,190.153 168.82,195.819 167,208.5C 163.345,215.07 157.845,217.237 150.5,215C 143.93,211.345 141.763,205.845 144,198.5C 145.694,195.642 147.861,193.309 150.5,191.5 Z"/></g>
<g><path style="opacity:0.923" fill="#464747" d="M 227.5,191.5 C 238.86,190.71 242.193,195.543 237.5,206C 226.964,209.997 222.464,206.497 224,195.5C 224.69,193.65 225.856,192.316 227.5,191.5 Z"/></g>
<g><path style="opacity:0.936" fill="#464747" d="M 398.5,191.5 C 411.32,190.153 416.82,195.819 415,208.5C 411.345,215.07 405.845,217.237 398.5,215C 391.93,211.345 389.763,205.845 392,198.5C 393.694,195.642 395.861,193.309 398.5,191.5 Z"/></g>
<g><path style="opacity:0.969" fill="#464747" d="M 468.5,191.5 C 488.65,189.483 497.483,198.483 495,218.5C 489.657,229.752 480.824,233.919 468.5,231C 457.248,225.657 453.081,216.824 456,204.5C 458.353,198.315 462.52,193.982 468.5,191.5 Z"/></g>
<g><path style="opacity:0.969" fill="#464747" d="M 316.5,215.5 C 336.65,213.483 345.483,222.483 343,242.5C 337.657,253.752 328.824,257.919 316.5,255C 305.248,249.657 301.081,240.824 304,228.5C 306.353,222.315 310.52,217.982 316.5,215.5 Z"/></g>
<g><path style="opacity:0.969" fill="#464747" d="M 60.5,223.5 C 80.6499,221.483 89.4833,230.483 87,250.5C 81.6574,261.752 72.8241,265.919 60.5,263C 49.2477,257.657 45.0811,248.824 48,236.5C 50.3531,230.315 54.5198,225.982 60.5,223.5 Z"/></g>
<g><path style="opacity:0.936" fill="#464747" d="M 190.5,247.5 C 203.32,246.153 208.82,251.819 207,264.5C 203.345,271.07 197.845,273.237 190.5,271C 183.93,267.345 181.763,261.845 184,254.5C 185.694,251.642 187.861,249.309 190.5,247.5 Z"/></g>
<g><path style="opacity:0.923" fill="#464747" d="M 123.5,271.5 C 134.86,270.71 138.193,275.543 133.5,286C 122.964,289.997 118.464,286.497 120,275.5C 120.69,273.65 121.856,272.316 123.5,271.5 Z"/></g>
<g><path style="opacity:0.923" fill="#464747" d="M 251.5,271.5 C 262.86,270.71 266.193,275.543 261.5,286C 250.964,289.997 246.464,286.497 248,275.5C 248.69,273.65 249.856,272.316 251.5,271.5 Z"/></g>
<g><path style="opacity:0.936" fill="#464747" d="M 446.5,271.5 C 459.32,270.153 464.82,275.819 463,288.5C 459.345,295.07 453.845,297.237 446.5,295C 439.93,291.345 437.763,285.845 440,278.5C 441.694,275.642 443.861,273.309 446.5,271.5 Z"/></g>
<g><path style="opacity:0.923" fill="#464747" d="M 379.5,279.5 C 390.86,278.71 394.193,283.543 389.5,294C 378.964,297.997 374.464,294.497 376,283.5C 376.69,281.65 377.856,280.316 379.5,279.5 Z"/></g>
<g><path style="opacity:0.923" fill="#464747" d="M 19.5,287.5 C 30.8598,286.71 34.1931,291.543 29.5,302C 18.9641,305.997 14.4641,302.497 16,291.5C 16.6897,289.65 17.8564,288.316 19.5,287.5 Z"/></g>
<g><path style="opacity:0.923" fill="#464747" d="M 323.5,311.5 C 334.86,310.71 338.193,315.543 333.5,326C 322.964,329.997 318.464,326.497 320,315.5C 320.69,313.65 321.856,312.316 323.5,311.5 Z"/></g>
<g><path style="opacity:0.956" fill="#454747" d="M 121.5,327.5 C 140.778,326.61 147.278,335.276 141,353.5C 134.055,360.069 126.222,361.236 117.5,357C 110.931,350.055 109.764,342.222 114,333.5C 116.114,330.879 118.614,328.879 121.5,327.5 Z"/></g>
<g><path style="opacity:0.923" fill="#464747" d="M 195.5,335.5 C 206.86,334.71 210.193,339.543 205.5,350C 194.964,353.997 190.464,350.497 192,339.5C 192.69,337.65 193.856,336.316 195.5,335.5 Z"/></g>
<g><path style="opacity:0.936" fill="#464747" d="M 262.5,335.5 C 275.32,334.153 280.82,339.819 279,352.5C 275.345,359.07 269.845,361.237 262.5,359C 255.93,355.345 253.763,349.845 256,342.5C 257.694,339.642 259.861,337.309 262.5,335.5 Z"/></g>
<g><path style="opacity:0.956" fill="#454747" d="M 369.5,351.5 C 388.778,350.61 395.278,359.276 389,377.5C 382.055,384.069 374.222,385.236 365.5,381C 358.931,374.055 357.764,366.222 362,357.5C 364.114,354.879 366.614,352.879 369.5,351.5 Z"/></g>
<g><path style="opacity:0.923" fill="#464747" d="M 451.5,351.5 C 462.86,350.71 466.193,355.543 461.5,366C 450.964,369.997 446.464,366.497 448,355.5C 448.69,353.65 449.856,352.316 451.5,351.5 Z"/></g>
<g><path style="opacity:0.936" fill="#464747" d="M 54.5,359.5 C 67.3202,358.153 72.8202,363.819 71,376.5C 67.3449,383.07 61.8449,385.237 54.5,383C 47.9298,379.345 45.7632,373.845 48,366.5C 49.6941,363.642 51.8607,361.309 54.5,359.5 Z"/></g>
<g><path style="opacity:0.969" fill="#464747" d="M 196.5,391.5 C 216.65,389.483 225.483,398.483 223,418.5C 217.657,429.752 208.824,433.919 196.5,431C 185.248,425.657 181.081,416.824 184,404.5C 186.353,398.315 190.52,393.982 196.5,391.5 Z"/></g>
<g><path style="opacity:0.936" fill="#464747" d="M 294.5,399.5 C 307.32,398.153 312.82,403.819 311,416.5C 307.345,423.07 301.845,425.237 294.5,423C 287.93,419.345 285.763,413.845 288,406.5C 289.694,403.642 291.861,401.309 294.5,399.5 Z"/></g>
<g><path style="opacity:0.936" fill="#464747" d="M 398.5,415.5 C 411.32,414.153 416.82,419.819 415,432.5C 411.345,439.07 405.845,441.237 398.5,439C 391.93,435.345 389.763,429.845 392,422.5C 393.694,419.642 395.861,417.309 398.5,415.5 Z"/></g>
<g><path style="opacity:0.936" fill="#464747" d="M 126.5,431.5 C 139.32,430.153 144.82,435.819 143,448.5C 139.345,455.07 133.845,457.237 126.5,455C 119.93,451.345 117.763,445.845 120,438.5C 121.694,435.642 123.861,433.309 126.5,431.5 Z"/></g>
<g><path style="opacity:0.923" fill="#464747" d="M 331.5,463.5 C 342.86,462.71 346.193,467.543 341.5,478C 330.964,481.997 326.464,478.497 328,467.5C 328.69,465.65 329.856,464.316 331.5,463.5 Z"/></g>
<g><path style="opacity:0.923" fill="#464747" d="M 227.5,471.5 C 238.86,470.71 242.193,475.543 237.5,486C 226.964,489.997 222.464,486.497 224,475.5C 224.69,473.65 225.856,472.316 227.5,471.5 Z"/></g>
</svg>
