<?xml version="1.0" encoding="UTF-8"?>
<!DOCTYPE svg PUBLIC "-//W3C//DTD SVG 1.1//EN" "http://www.w3.org/Graphics/SVG/1.1/DTD/svg11.dtd">
<svg xmlns="http://www.w3.org/2000/svg" version="1.1" width="512px" height="512px" style="shape-rendering:geometricPrecision; text-rendering:geometricPrecision; image-rendering:optimizeQuality; fill-rule:evenodd; clip-rule:evenodd" xmlns:xlink="http://www.w3.org/1999/xlink">
<g><path style="opacity:0.989" fill="#1badff" d="M 463.5,332.5 C 448.576,331.579 434.91,326.746 422.5,318C 410.722,304.852 396.389,300.852 379.5,306C 371.812,310.844 364.479,316.177 357.5,322C 334.138,334.522 310.804,334.522 287.5,322C 281.116,316.615 274.45,311.615 267.5,307C 254.977,301.591 242.977,302.591 231.5,310C 216.529,325.647 198.195,332.647 176.5,331C 165.077,324.404 162.911,315.571 170,304.5C 172.251,302.623 174.751,301.123 177.5,300C 186.121,300.459 194.121,298.459 201.5,294C 228.509,268.048 258.176,264.548 290.5,283.5C 294.959,286.787 299.292,290.287 303.5,294C 307.219,296.364 311.219,297.864 315.5,298.5C 314.599,291.29 312.765,284.29 310,277.5C 299.876,251.586 287.876,226.586 274,202.5C 248.804,158.989 221.638,116.823 192.5,76C 191.551,75.3828 190.718,75.5494 190,76.5C 186.612,81.0477 183.445,85.7144 180.5,90.5C 141.039,145.044 106.873,203.044 78,264.5C 55.4079,313.26 60.4079,358.927 93,401.5C 131.973,444.037 179.14,456.87 234.5,440C 245.724,435.721 256.391,430.388 266.5,424C 268.81,423.503 271.143,423.337 273.5,423.5C 278.09,424.461 282.09,426.461 285.5,429.5C 288.974,437.686 287.974,445.186 282.5,452C 233.454,483.1 181.787,488.1 127.5,467C 72.7608,440.901 40.9274,397.735 32,337.5C 29.8875,317.72 31.8875,298.387 38,279.5C 48.5474,249.405 61.5474,220.405 77,192.5C 107.518,138.675 141.185,87.0079 178,37.5C 187,29.5 196,29.5 205,37.5C 245.994,92.7895 282.994,150.79 316,211.5C 328.817,236.287 339.484,261.954 348,288.5C 368.185,271.33 391.018,266.83 416.5,275C 426.839,279.008 435.839,285.008 443.5,293C 452.27,297.575 461.603,300.241 471.5,301C 479.056,305.848 481.556,312.682 479,321.5C 476.044,328.232 470.877,331.899 463.5,332.5 Z"/></g>
<g><path style="opacity:0.986" fill="#1badff" d="M 402.5,47.5 C 408.311,46.7743 413.645,47.9409 418.5,51C 440.261,77.7965 458.428,106.963 473,138.5C 487.015,175.446 478.182,205.613 446.5,229C 410.717,247.526 378.884,242.359 351,213.5C 336.295,194.311 331.962,172.978 338,149.5C 342.029,137.751 347.029,126.418 353,115.5C 365.489,94.0196 379.155,73.353 394,53.5C 396.671,51.0976 399.505,49.0976 402.5,47.5 Z"/></g>
<g><path style="opacity:1" fill="#fdfeff" d="M 290.5,283.5 C 281.503,258.837 270.336,235.171 257,212.5C 233.414,171.647 208.08,131.98 181,93.5C 180.517,92.552 180.351,91.552 180.5,90.5C 183.445,85.7144 186.612,81.0477 190,76.5C 190.718,75.5494 191.551,75.3828 192.5,76C 221.638,116.823 248.804,158.989 274,202.5C 287.876,226.586 299.876,251.586 310,277.5C 312.765,284.29 314.599,291.29 315.5,298.5C 311.219,297.864 307.219,296.364 303.5,294C 299.292,290.287 294.959,286.787 290.5,283.5 Z"/></g>
<g><path style="opacity:1" fill="#cbecff" d="M 180.5,90.5 C 180.351,91.552 180.517,92.552 181,93.5C 208.08,131.98 233.414,171.647 257,212.5C 270.336,235.171 281.503,258.837 290.5,283.5C 258.176,264.548 228.509,268.048 201.5,294C 194.121,298.459 186.121,300.459 177.5,300C 174.751,301.123 172.251,302.623 170,304.5C 162.911,315.571 165.077,324.404 176.5,331C 198.195,332.647 216.529,325.647 231.5,310C 242.977,302.591 254.977,301.591 267.5,307C 274.45,311.615 281.116,316.615 287.5,322C 310.804,334.522 334.138,334.522 357.5,322C 364.479,316.177 371.812,310.844 379.5,306C 396.389,300.852 410.722,304.852 422.5,318C 434.91,326.746 448.576,331.579 463.5,332.5C 463.5,343.5 463.5,354.5 463.5,365.5C 458.629,365.808 453.963,364.975 449.5,363C 442.55,358.385 435.884,353.385 429.5,348C 398.02,330.858 369.354,334.525 343.5,359C 330.277,366.995 316.944,367.328 303.5,360C 277.924,335.552 249.257,331.219 217.5,347C 210.833,352 204.167,357 197.5,362C 191.015,364.192 184.348,365.526 177.5,366C 165.691,371.46 162.858,379.96 169,391.5C 172.605,395.969 177.272,397.969 183,397.5C 203.242,396.294 220.409,388.46 234.5,374C 251.917,366.35 267.251,369.35 280.5,383C 284.898,385.857 289.232,388.691 293.5,391.5C 290.202,396.08 287.368,401.08 285,406.5C 281.337,412.321 277.503,417.988 273.5,423.5C 271.143,423.337 268.81,423.503 266.5,424C 256.391,430.388 245.724,435.721 234.5,440C 179.14,456.87 131.973,444.037 93,401.5C 60.4079,358.927 55.4079,313.26 78,264.5C 106.873,203.044 141.039,145.044 180.5,90.5 Z"/></g>
<g><path style="opacity:1" fill="#fdfeff" d="M 429.5,200.5 C 432.236,190.11 432.069,179.777 429,169.5C 420.65,148.459 409.983,128.792 397,110.5C 396.517,109.552 396.351,108.552 396.5,107.5C 399.656,102.528 402.823,97.5282 406,92.5C 406.718,91.5494 407.551,91.3828 408.5,92C 422.576,111.975 434.743,133.142 445,155.5C 450.07,174.126 444.903,189.126 429.5,200.5 Z"/></g>
<g><path style="opacity:1" fill="#cbecff" d="M 396.5,107.5 C 396.351,108.552 396.517,109.552 397,110.5C 409.983,128.792 420.65,148.459 429,169.5C 432.069,179.777 432.236,190.11 429.5,200.5C 409.614,212.02 391.781,209.353 376,192.5C 367.922,181.117 365.922,168.783 370,155.5C 377.071,138.344 385.904,122.344 396.5,107.5 Z"/></g>
<g><path style="opacity:0.994" fill="#1cadff" d="M 463.5,365.5 C 473.828,365.828 479.161,371.161 479.5,381.5C 478.909,392.092 473.242,397.758 462.5,398.5C 452.023,397.881 442.023,395.381 432.5,391C 424.27,386.105 416.604,380.438 409.5,374C 392.12,366.509 377.12,369.842 364.5,384C 349.146,395.181 332.146,399.681 313.5,397.5C 306.751,396.141 300.084,394.141 293.5,391.5C 289.232,388.691 284.898,385.857 280.5,383C 267.251,369.35 251.917,366.35 234.5,374C 220.409,388.46 203.242,396.294 183,397.5C 177.272,397.969 172.605,395.969 169,391.5C 162.858,379.96 165.691,371.46 177.5,366C 184.348,365.526 191.015,364.192 197.5,362C 204.167,357 210.833,352 217.5,347C 249.257,331.219 277.924,335.552 303.5,360C 316.944,367.328 330.277,366.995 343.5,359C 369.354,334.525 398.02,330.858 429.5,348C 435.884,353.385 442.55,358.385 449.5,363C 453.963,364.975 458.629,365.808 463.5,365.5 Z"/></g>
<g><path style="opacity:1" fill="#fcfeff" d="M 293.5,391.5 C 300.084,394.141 306.751,396.141 313.5,397.5C 305.571,409.331 296.238,419.998 285.5,429.5C 282.09,426.461 278.09,424.461 273.5,423.5C 277.503,417.988 281.337,412.321 285,406.5C 287.368,401.08 290.202,396.08 293.5,391.5 Z"/></g>
</svg>
