<svg width="20" height="20" viewBox="0 0 20 20" fill="none" xmlns="http://www.w3.org/2000/svg">
<path d="M2.302 15.0312V13.9374C2.302 13.5902 2.3836 13.276 2.54679 12.9947C2.70999 12.7135 2.94089 12.486 3.2395 12.3124C3.97561 11.8819 4.75339 11.5503 5.57284 11.3176C6.39228 11.085 7.24297 10.9687 8.12492 10.9687C9.00686 10.9687 9.85582 11.085 10.6718 11.3176C11.4878 11.5503 12.2638 11.8819 12.9999 12.3124C13.2985 12.486 13.5294 12.7135 13.6926 12.9947C13.8558 13.276 13.9374 13.5902 13.9374 13.9374V15.0312C13.9374 15.2187 13.868 15.3819 13.7291 15.5208C13.5902 15.6596 13.427 15.7291 13.2395 15.7291H2.99992C2.81242 15.7291 2.64922 15.6596 2.51034 15.5208C2.37145 15.3819 2.302 15.2187 2.302 15.0312ZM15.1874 15.7291C15.2638 15.6319 15.3194 15.5121 15.3541 15.3697C15.3888 15.2273 15.4062 15.0728 15.4062 14.9062V13.9583C15.4062 13.3819 15.2725 12.8558 15.0051 12.3801C14.7378 11.9044 14.3819 11.5173 13.9374 11.2187C14.4444 11.3298 14.9357 11.4739 15.4114 11.651C15.8871 11.828 16.3437 12.052 16.7812 12.3228C17.0659 12.4826 17.2898 12.7083 17.453 12.9999C17.6162 13.2916 17.6978 13.611 17.6978 13.9583V15.0312C17.6978 15.2187 17.6284 15.3819 17.4895 15.5208C17.3506 15.6596 17.1874 15.7291 16.9999 15.7291H15.1874ZM8.12492 10.0208C7.31936 10.0208 6.63881 9.74297 6.08325 9.18742C5.5277 8.63186 5.24992 7.95131 5.24992 7.14575C5.24992 6.3402 5.5277 5.65964 6.08325 5.10409C6.63881 4.54853 7.31936 4.27075 8.12492 4.27075C8.93047 4.27075 9.61103 4.54853 10.1666 5.10409C10.7221 5.65964 10.9999 6.3402 10.9999 7.14575C10.9999 7.95131 10.7221 8.63186 10.1666 9.18742C9.61103 9.74297 8.93047 10.0208 8.12492 10.0208ZM14.7499 7.13534C14.7499 7.93395 14.4721 8.61277 13.9166 9.17179C13.361 9.73082 12.6805 10.0103 11.8749 10.0103C11.7846 10.0103 11.6996 10.0086 11.6197 10.0051C11.5398 10.0017 11.4513 9.98603 11.3541 9.95825C11.6944 9.57631 11.9635 9.14922 12.1614 8.677C12.3593 8.20478 12.4583 7.69089 12.4583 7.13534C12.4583 6.58672 12.3593 6.07457 12.1614 5.59888C11.9635 5.12318 11.6944 4.69436 11.3541 4.31242C11.4444 4.29159 11.5312 4.27943 11.6145 4.27596C11.6978 4.27249 11.7846 4.27075 11.8749 4.27075C12.6805 4.27075 13.361 4.54853 13.9166 5.10409C14.4721 5.65964 14.7499 6.33672 14.7499 7.13534Z" fill="#555555"/>
</svg>
