<?xml version="1.0" encoding="UTF-8"?>
<!DOCTYPE svg PUBLIC "-//W3C//DTD SVG 1.1//EN" "http://www.w3.org/Graphics/SVG/1.1/DTD/svg11.dtd">
<svg xmlns="http://www.w3.org/2000/svg" version="1.1" width="512px" height="512px" style="shape-rendering:geometricPrecision; text-rendering:geometricPrecision; image-rendering:optimizeQuality; fill-rule:evenodd; clip-rule:evenodd" xmlns:xlink="http://www.w3.org/1999/xlink">
<g><path style="opacity:0.995" fill="#f44335" d="M 379.5,-0.5 C 389.5,-0.5 399.5,-0.5 409.5,-0.5C 461.814,9.98336 492.314,41.65 501,94.5C 503.658,148.135 480.491,185.635 431.5,207C 382.892,221.478 342.059,209.644 309,171.5C 283.017,132.966 280.684,92.9657 302,51.5C 320.028,22.567 345.861,5.23365 379.5,-0.5 Z"/></g>
<g><path style="opacity:0.998" fill="#ffc006" d="M 309.5,426.5 C 252.5,426.5 195.5,426.5 138.5,426.5C 105.832,426.667 73.165,426.5 40.5,426C 17.4327,419.054 7.59933,403.554 11,379.5C 12.6969,373.104 15.6969,367.438 20,362.5C 55.1203,333.588 73.1203,296.255 74,250.5C 74.0704,222.472 74.7371,194.472 76,166.5C 88.6472,105.851 124.481,66.0175 183.5,47C 208.508,40.0411 233.508,39.8744 258.5,46.5C 235.902,103.484 243.735,155.817 282,203.5C 306.361,230.436 336.528,247.102 372.5,253.5C 376.078,298.993 395.245,336.327 430,365.5C 441.493,384.459 439.66,401.959 424.5,418C 419.244,422.294 413.244,424.96 406.5,426C 374.168,426.5 341.835,426.667 309.5,426.5 Z"/></g>
<g><path style="opacity:0.99" fill="#ffa000" d="M 138.5,426.5 C 195.5,426.5 252.5,426.5 309.5,426.5C 306.388,472.607 282.388,500.94 237.5,511.5C 228.5,511.5 219.5,511.5 210.5,511.5C 171.514,502.68 147.681,478.68 139,439.5C 138.501,435.179 138.334,430.846 138.5,426.5 Z"/></g>
</svg>
