<svg width="20" height="20" viewBox="0 0 20 20" fill="none" xmlns="http://www.w3.org/2000/svg">
<path d="M4.58333 16.8124C4.19861 16.8124 3.86979 16.676 3.59687 16.403C3.32396 16.1301 3.1875 15.8013 3.1875 15.4166V4.58325C3.1875 4.19853 3.32396 3.86971 3.59687 3.59679C3.86979 3.32388 4.19861 3.18742 4.58333 3.18742H8.1875C8.26389 2.76381 8.47049 2.41138 8.80729 2.13013C9.1441 1.84888 9.54167 1.70825 10 1.70825C10.4583 1.70825 10.8559 1.84888 11.1927 2.13013C11.5295 2.41138 11.7361 2.76381 11.8125 3.18742H15.4167C15.8014 3.18742 16.1302 3.32388 16.4031 3.59679C16.676 3.86971 16.8125 4.19853 16.8125 4.58325V15.4166C16.8125 15.8013 16.676 16.1301 16.4031 16.403C16.1302 16.676 15.8014 16.8124 15.4167 16.8124H4.58333ZM6.80208 13.8749H11.2396C11.4313 13.8749 11.5955 13.8069 11.7323 13.671C11.8691 13.535 11.9375 13.3718 11.9375 13.1814C11.9375 12.991 11.8691 12.8263 11.7323 12.6874C11.5955 12.5485 11.4313 12.4791 11.2396 12.4791H6.80208C6.61042 12.4791 6.44618 12.5471 6.30938 12.683C6.17257 12.819 6.10417 12.9822 6.10417 13.1726C6.10417 13.363 6.17257 13.5277 6.30938 13.6666C6.44618 13.8055 6.61042 13.8749 6.80208 13.8749ZM6.80208 10.6874H13.1979C13.3896 10.6874 13.5538 10.6194 13.6906 10.4835C13.8274 10.3475 13.8958 10.1843 13.8958 9.9939C13.8958 9.80347 13.8274 9.63881 13.6906 9.49992C13.5538 9.36103 13.3896 9.29159 13.1979 9.29159H6.80208C6.61042 9.29159 6.44618 9.35956 6.30938 9.49552C6.17257 9.6315 6.10417 9.79469 6.10417 9.98511C6.10417 10.1755 6.17257 10.3402 6.30938 10.4791C6.44618 10.618 6.61042 10.6874 6.80208 10.6874ZM6.80208 7.49992H13.1979C13.3896 7.49992 13.5538 7.43194 13.6906 7.29598C13.8274 7.16001 13.8958 6.99681 13.8958 6.8064C13.8958 6.61597 13.8274 6.45131 13.6906 6.31242C13.5538 6.17353 13.3896 6.10409 13.1979 6.10409H6.80208C6.61042 6.10409 6.44618 6.17206 6.30938 6.30802C6.17257 6.44399 6.10417 6.60719 6.10417 6.79761C6.10417 6.98804 6.17257 7.1527 6.30938 7.29159C6.44618 7.43047 6.61042 7.49992 6.80208 7.49992ZM10 4.12492C10.1444 4.12492 10.2639 4.0777 10.3583 3.98325C10.4528 3.88881 10.5 3.76936 10.5 3.62492C10.5 3.48047 10.4528 3.36103 10.3583 3.26659C10.2639 3.17214 10.1444 3.12492 10 3.12492C9.85556 3.12492 9.73611 3.17214 9.64167 3.26659C9.54722 3.36103 9.5 3.48047 9.5 3.62492C9.5 3.76936 9.54722 3.88881 9.64167 3.98325C9.73611 4.0777 9.85556 4.12492 10 4.12492Z" fill="#555555"/>
</svg>
