<?xml version="1.0" encoding="UTF-8"?>
<!DOCTYPE svg PUBLIC "-//W3C//DTD SVG 1.1//EN" "http://www.w3.org/Graphics/SVG/1.1/DTD/svg11.dtd">
<svg xmlns="http://www.w3.org/2000/svg" version="1.1" width="512px" height="512px" style="shape-rendering:geometricPrecision; text-rendering:geometricPrecision; image-rendering:optimizeQuality; fill-rule:evenodd; clip-rule:evenodd" xmlns:xlink="http://www.w3.org/1999/xlink">
<g><path style="opacity:0.954" fill="#000000" d="M 511.5,34.5 C 511.5,92.1667 511.5,149.833 511.5,207.5C 510.317,208.504 508.984,209.338 507.5,210C 339.5,210.667 171.5,210.667 3.5,210C 2.01608,209.338 0.682751,208.504 -0.5,207.5C -0.5,149.833 -0.5,92.1667 -0.5,34.5C 2.20539,30.8298 5.87205,29.6631 10.5,31C 12,31.8333 13.1667,33 14,34.5C 14.5,87.8323 14.6667,141.166 14.5,194.5C 50.8333,194.5 87.1667,194.5 123.5,194.5C 123.333,175.83 123.5,157.164 124,138.5C 127.509,134.387 131.676,133.554 136.5,136C 137.893,137.171 138.727,138.671 139,140.5C 139.5,158.497 139.667,176.497 139.5,194.5C 175.5,194.5 211.5,194.5 247.5,194.5C 247.333,141.499 247.5,88.499 248,35.5C 251.013,30.4648 255.18,29.2981 260.5,32C 261.701,32.9025 262.535,34.0692 263,35.5C 263.5,88.499 263.667,141.499 263.5,194.5C 299.5,194.5 335.5,194.5 371.5,194.5C 371.333,141.832 371.5,89.1656 372,36.5C 373.98,31.0945 377.814,29.2611 383.5,31C 384.667,32.1667 385.833,33.3333 387,34.5C 387.5,87.8323 387.667,141.166 387.5,194.5C 423.833,194.5 460.167,194.5 496.5,194.5C 496.333,141.166 496.5,87.8323 497,34.5C 499.513,30.7885 503.013,29.6218 507.5,31C 509.027,32.0319 510.36,33.1986 511.5,34.5 Z"/></g>
<g><path style="opacity:0.923" fill="#000000" d="M 127.5,30.5 C 133.192,29.2601 137.026,31.2601 139,36.5C 139.667,60.8333 139.667,85.1667 139,109.5C 136.567,115.448 132.4,116.948 126.5,114C 125.667,113.167 124.833,112.333 124,111.5C 123.333,85.8333 123.333,60.1667 124,34.5C 125.376,33.2949 126.542,31.9616 127.5,30.5 Z"/></g>
<g><path style="opacity:0.969" fill="#030000" d="M 298.5,51.5 C 311.171,51.3334 323.838,51.5001 336.5,52C 343.407,53.7113 348.24,57.878 351,64.5C 352.626,93.7931 352.959,123.126 352,152.5C 347.63,170.457 336.13,178.124 317.5,175.5C 301.574,177.959 290.407,171.959 284,157.5C 283.333,126.833 283.333,96.1667 284,65.5C 286.749,58.5832 291.582,53.9166 298.5,51.5 Z"/></g>
<g><path style="opacity:0.967" fill="#000001" d="M 422.5,51.5 C 435.504,51.3334 448.504,51.5001 461.5,52C 469.435,54.2684 474.268,59.4351 476,67.5C 476.667,96.5 476.667,125.5 476,154.5C 474.119,164.114 468.619,170.614 459.5,174C 448.893,175.569 438.226,175.903 427.5,175C 417.433,172.6 410.933,166.434 408,156.5C 407.333,126.5 407.333,96.5 408,66.5C 410.351,58.9841 415.184,53.9841 422.5,51.5 Z"/></g>
<g><path style="opacity:1" fill="#ea2634" d="M 301.5,66.5 C 312.172,66.3335 322.839,66.5002 333.5,67C 334.333,67.8333 335.167,68.6667 336,69.5C 336.499,73.1516 336.665,76.8183 336.5,80.5C 333.206,80.741 330.206,79.9076 327.5,78C 320.833,77.3333 314.167,77.3333 307.5,78C 305.884,78.6152 304.551,79.6152 303.5,81C 301.866,81.4935 300.199,81.6602 298.5,81.5C 298.334,77.4862 298.501,73.4862 299,69.5C 300.045,68.6266 300.878,67.6266 301.5,66.5 Z"/></g>
<g><path style="opacity:1" fill="#048bf0" d="M 457.5,67.5 C 454.167,67.5 450.833,67.5 447.5,67.5C 447.5,70.8333 447.5,74.1667 447.5,77.5C 442.156,77.334 436.823,77.5006 431.5,78C 430.016,78.6622 428.683,79.4955 427.5,80.5C 426.167,80.5 424.833,80.5 423.5,80.5C 423.5,76.8333 423.5,73.1667 423.5,69.5C 423.953,68.5416 424.619,67.7083 425.5,67C 436.341,66.1745 447.008,66.3412 457.5,67.5 Z"/></g>
<g><path style="opacity:1" fill="#0080f9" d="M 457.5,67.5 C 458.496,67.4142 459.329,67.7476 460,68.5C 460.499,72.4862 460.666,76.4862 460.5,80.5C 456.047,79.7582 451.714,78.7582 447.5,77.5C 447.5,74.1667 447.5,70.8333 447.5,67.5C 450.833,67.5 454.167,67.5 457.5,67.5 Z"/></g>
<g><path style="opacity:1" fill="#025088" d="M 423.5,69.5 C 423.5,73.1667 423.5,76.8333 423.5,80.5C 424.833,80.5 426.167,80.5 427.5,80.5C 426.081,81.4511 424.415,81.7845 422.5,81.5C 422.183,77.2984 422.517,73.2984 423.5,69.5 Z"/></g>
<g><path style="opacity:1" fill="#0f5282" d="M 460.5,122.5 C 448.011,123.495 435.344,123.829 422.5,123.5C 422.5,114.167 422.5,104.833 422.5,95.5C 435.5,95.5 448.5,95.5 461.5,95.5C 461.827,104.682 461.493,113.682 460.5,122.5 Z"/></g>
<g><path style="opacity:1" fill="#f64452" d="M 336.5,96.5 C 332.167,96.5 327.833,96.5 323.5,96.5C 323.5,105.167 323.5,113.833 323.5,122.5C 315.167,122.5 306.833,122.5 298.5,122.5C 298.5,113.5 298.5,104.5 298.5,95.5C 311.344,95.1713 324.011,95.5046 336.5,96.5 Z"/></g>
<g><path style="opacity:1" fill="#fa2b39" d="M 336.5,96.5 C 336.5,105.167 336.5,113.833 336.5,122.5C 332.167,122.5 327.833,122.5 323.5,122.5C 323.5,113.833 323.5,105.167 323.5,96.5C 327.833,96.5 332.167,96.5 336.5,96.5 Z"/></g>
<g><path style="opacity:1" fill="#26a5fe" d="M 447.5,96.5 C 447.5,105.167 447.5,113.833 447.5,122.5C 439.5,122.5 431.5,122.5 423.5,122.5C 423.5,113.833 423.5,105.167 423.5,96.5C 431.5,96.5 439.5,96.5 447.5,96.5 Z"/></g>
<g><path style="opacity:1" fill="#0592fc" d="M 447.5,96.5 C 451.833,96.5 456.167,96.5 460.5,96.5C 460.5,105.167 460.5,113.833 460.5,122.5C 456.167,122.5 451.833,122.5 447.5,122.5C 447.5,113.833 447.5,105.167 447.5,96.5 Z"/></g>
<g><path style="opacity:1" fill="#f72a39" d="M 307.5,145.5 C 312.64,146.488 317.974,146.821 323.5,146.5C 323.731,150.993 323.064,155.326 321.5,159.5C 302.698,163.697 295.031,156.363 298.5,137.5C 299.5,137.5 300.5,137.5 301.5,137.5C 301.635,141.627 303.635,144.294 307.5,145.5 Z"/></g>
<g><path style="opacity:1" fill="#d91e2b" d="M 321.5,159.5 C 323.064,155.326 323.731,150.993 323.5,146.5C 317.974,146.821 312.64,146.488 307.5,145.5C 314.841,145.666 322.174,145.5 329.5,145C 332.024,143.117 333.358,140.617 333.5,137.5C 334.5,137.5 335.5,137.5 336.5,137.5C 336.91,143.621 336.41,149.621 335,155.5C 331.349,159.205 326.849,160.539 321.5,159.5 Z"/></g>
<g><path style="opacity:1" fill="#025794" d="M 426.5,140.5 C 425.849,139.909 425.182,139.243 424.5,138.5C 423.507,143.12 423.173,147.786 423.5,152.5C 422.513,147.695 422.179,142.695 422.5,137.5C 423.833,137.5 425.167,137.5 426.5,137.5C 426.5,138.5 426.5,139.5 426.5,140.5 Z"/></g>
<g><path style="opacity:1" fill="#048ef4" d="M 426.5,140.5 C 427.023,142.708 428.356,144.208 430.5,145C 437.492,145.5 444.492,145.666 451.5,145.5C 450.432,146.434 449.099,146.768 447.5,146.5C 447.731,150.993 447.064,155.326 445.5,159.5C 439.824,159.666 434.157,159.499 428.5,159C 425.507,157.841 423.84,155.675 423.5,152.5C 423.173,147.786 423.507,143.12 424.5,138.5C 425.182,139.243 425.849,139.909 426.5,140.5 Z"/></g>
<g><path style="opacity:1" fill="#0180f8" d="M 457.5,138.5 C 458.5,138.5 459.5,138.5 460.5,138.5C 460.5,143.167 460.5,147.833 460.5,152.5C 457.722,159.006 452.722,161.339 445.5,159.5C 447.064,155.326 447.731,150.993 447.5,146.5C 449.099,146.768 450.432,146.434 451.5,145.5C 455.59,144.998 457.59,142.665 457.5,138.5 Z"/></g>
<g><path style="opacity:1" fill="#00315f" d="M 457.5,138.5 C 458.568,137.566 459.901,137.232 461.5,137.5C 461.821,142.695 461.487,147.695 460.5,152.5C 460.5,147.833 460.5,143.167 460.5,138.5C 459.5,138.5 458.5,138.5 457.5,138.5 Z"/></g>
<g><path style="opacity:0.997" fill="#000000" d="M 244.5,237.5 C 244.076,241.146 242.076,243.646 238.5,245C 227.505,245.5 216.505,245.667 205.5,245.5C 205.5,252.167 205.5,258.833 205.5,265.5C 238.833,265.5 272.167,265.5 305.5,265.5C 305.5,258.833 305.5,252.167 305.5,245.5C 293.162,245.667 280.829,245.5 268.5,245C 265.676,243.164 264.01,240.664 263.5,237.5C 263.78,234.713 265.113,232.547 267.5,231C 346.5,230.333 425.5,230.333 504.5,231C 507.358,232.694 509.691,234.861 511.5,237.5C 511.5,249.5 511.5,261.5 511.5,273.5C 509.691,276.139 507.358,278.306 504.5,280C 338.5,280.667 172.5,280.667 6.5,280C 3.64238,278.306 1.30904,276.139 -0.5,273.5C -0.5,261.5 -0.5,249.5 -0.5,237.5C 1.30904,234.861 3.64238,232.694 6.5,231C 84.5,230.333 162.5,230.333 240.5,231C 242.923,232.571 244.256,234.737 244.5,237.5 Z"/></g>
<g><path style="opacity:0.995" fill="#8f808f" d="M 244.5,237.5 C 250.833,237.5 257.167,237.5 263.5,237.5C 264.01,240.664 265.676,243.164 268.5,245C 280.829,245.5 293.162,245.667 305.5,245.5C 305.5,252.167 305.5,258.833 305.5,265.5C 272.167,265.5 238.833,265.5 205.5,265.5C 205.5,258.833 205.5,252.167 205.5,245.5C 216.505,245.667 227.505,245.5 238.5,245C 242.076,243.646 244.076,241.146 244.5,237.5 Z"/></g>
<g><path style="opacity:1" fill="#908190" d="M 14.5,245.5 C 40.1667,245.5 65.8333,245.5 91.5,245.5C 91.5,252.167 91.5,258.833 91.5,265.5C 65.8333,265.5 40.1667,265.5 14.5,265.5C 14.5,258.833 14.5,252.167 14.5,245.5 Z"/></g>
<g><path style="opacity:1" fill="#dfdbdf" d="M 105.5,245.5 C 134.167,245.5 162.833,245.5 191.5,245.5C 191.5,252.167 191.5,258.833 191.5,265.5C 162.833,265.5 134.167,265.5 105.5,265.5C 105.5,258.833 105.5,252.167 105.5,245.5 Z"/></g>
<g><path style="opacity:1" fill="#dfdbdf" d="M 319.5,245.5 C 348.167,245.5 376.833,245.5 405.5,245.5C 405.5,252.167 405.5,258.833 405.5,265.5C 376.833,265.5 348.167,265.5 319.5,265.5C 319.5,258.833 319.5,252.167 319.5,245.5 Z"/></g>
<g><path style="opacity:1" fill="#908190" d="M 419.5,245.5 C 445.167,245.5 470.833,245.5 496.5,245.5C 496.5,252.167 496.5,258.833 496.5,265.5C 470.833,265.5 445.167,265.5 419.5,265.5C 419.5,258.833 419.5,252.167 419.5,245.5 Z"/></g>
<g><path style="opacity:0.954" fill="#000000" d="M 511.5,303.5 C 511.5,361.167 511.5,418.833 511.5,476.5C 506.665,481.786 501.831,481.786 497,476.5C 496.5,423.168 496.333,369.834 496.5,316.5C 460.167,316.5 423.833,316.5 387.5,316.5C 387.667,335.503 387.5,354.503 387,373.5C 383.491,377.613 379.324,378.446 374.5,376C 373.107,374.829 372.273,373.329 372,371.5C 371.5,353.17 371.333,334.836 371.5,316.5C 335.5,316.5 299.5,316.5 263.5,316.5C 263.667,369.501 263.5,422.501 263,475.5C 259.987,480.535 255.82,481.702 250.5,479C 249.299,478.097 248.465,476.931 248,475.5C 247.5,422.501 247.333,369.501 247.5,316.5C 211.5,316.5 175.5,316.5 139.5,316.5C 139.667,369.168 139.5,421.834 139,474.5C 137.02,479.906 133.186,481.739 127.5,480C 126.333,478.833 125.167,477.667 124,476.5C 123.5,423.168 123.333,369.834 123.5,316.5C 87.1667,316.5 50.8333,316.5 14.5,316.5C 14.6667,369.834 14.5,423.168 14,476.5C 9.16873,481.786 4.33539,481.786 -0.5,476.5C -0.5,418.833 -0.5,361.167 -0.5,303.5C 0.682751,302.496 2.01608,301.662 3.5,301C 171.5,300.333 339.5,300.333 507.5,301C 508.984,301.662 510.317,302.496 511.5,303.5 Z"/></g>
<g><path style="opacity:0.967" fill="#010101" d="M 55.5,335.5 C 64.8393,335.334 74.1726,335.5 83.5,336C 93.5666,338.4 100.067,344.566 103,354.5C 103.667,384.5 103.667,414.5 103,444.5C 100.833,452 96,456.833 88.5,459C 75.5,459.667 62.5,459.667 49.5,459C 41.5648,456.732 36.7315,451.565 35,443.5C 34.3333,414.5 34.3333,385.5 35,356.5C 37.3472,344.987 44.1806,337.987 55.5,335.5 Z"/></g>
<g><path style="opacity:0.969" fill="#030201" d="M 179.5,335.5 C 190.231,335.097 200.898,335.597 211.5,337C 219.089,340.255 224.256,345.755 227,353.5C 227.667,384.167 227.667,414.833 227,445.5C 224.432,452.401 219.598,456.901 212.5,459C 199.833,459.667 187.167,459.667 174.5,459C 167.581,457.285 162.747,453.119 160,446.5C 158.874,431.043 158.374,415.543 158.5,400C 158.382,384.129 158.882,368.296 160,352.5C 163.936,343.721 170.436,338.054 179.5,335.5 Z"/></g>
<g><path style="opacity:0.967" fill="#020000" d="M 427.5,335.5 C 436.839,335.334 446.173,335.5 455.5,336C 465.376,337.544 471.876,343.044 475,352.5C 476.635,382.785 476.969,413.119 476,443.5C 474.268,451.565 469.435,456.732 461.5,459C 448.5,459.667 435.5,459.667 422.5,459C 415,456.833 410.167,452 408,444.5C 407.333,414.5 407.333,384.5 408,354.5C 411.121,344.544 417.621,338.21 427.5,335.5 Z"/></g>
<g><path style="opacity:1" fill="#e0dce0" d="M 73.5,351.5 C 75.1834,355.636 75.8501,359.969 75.5,364.5C 69.9738,364.179 64.6405,364.512 59.5,365.5C 55.4098,366.002 53.4098,368.335 53.5,372.5C 52.5,372.5 51.5,372.5 50.5,372.5C 50.5,367.833 50.5,363.167 50.5,358.5C 51.312,355.725 52.9787,353.558 55.5,352C 61.4908,351.501 67.4908,351.334 73.5,351.5 Z"/></g>
<g><path style="opacity:1" fill="#c2bbc3" d="M 73.5,351.5 C 76.5184,351.335 79.5184,351.502 82.5,352C 85.4934,353.159 87.1601,355.325 87.5,358.5C 87.8266,363.214 87.4933,367.88 86.5,372.5C 85.8182,371.757 85.1515,371.091 84.5,370.5C 83.977,368.292 82.6437,366.792 80.5,366C 73.5079,365.5 66.5079,365.334 59.5,365.5C 64.6405,364.512 69.9738,364.179 75.5,364.5C 75.8501,359.969 75.1834,355.636 73.5,351.5 Z"/></g>
<g><path style="opacity:1" fill="#f6c957" d="M 197.5,351.5 C 198.91,355.705 199.577,360.038 199.5,364.5C 201.099,364.232 202.432,364.566 203.5,365.5C 196.159,365.334 188.826,365.5 181.5,366C 178.603,367.715 177.269,370.215 177.5,373.5C 176.5,373.5 175.5,373.5 174.5,373.5C 174.334,367.824 174.501,362.157 175,356.5C 176.5,355 178,353.5 179.5,352C 185.491,351.501 191.491,351.334 197.5,351.5 Z"/></g>
<g><path style="opacity:1" fill="#f8be42" d="M 197.5,351.5 C 202.765,350.571 207.265,351.904 211,355.5C 212.41,361.379 212.91,367.379 212.5,373.5C 211.5,373.5 210.5,373.5 209.5,373.5C 209.365,369.373 207.365,366.706 203.5,365.5C 202.432,364.566 201.099,364.232 199.5,364.5C 199.577,360.038 198.91,355.705 197.5,351.5 Z"/></g>
<g><path style="opacity:1" fill="#f82a39" d="M 445.5,351.5 C 447.183,355.636 447.85,359.969 447.5,364.5C 441.974,364.179 436.64,364.512 431.5,365.5C 428.833,366.167 427.167,367.833 426.5,370.5C 425.849,371.091 425.182,371.757 424.5,372.5C 423.507,367.88 423.173,363.214 423.5,358.5C 423.84,355.325 425.507,353.159 428.5,352C 434.157,351.501 439.824,351.334 445.5,351.5 Z"/></g>
<g><path style="opacity:1" fill="#da1e2b" d="M 445.5,351.5 C 452.722,349.661 457.722,351.994 460.5,358.5C 460.5,363.167 460.5,367.833 460.5,372.5C 459.5,372.5 458.5,372.5 457.5,372.5C 457.556,369.439 456.222,367.272 453.5,366C 446.174,365.5 438.841,365.334 431.5,365.5C 436.64,364.512 441.974,364.179 447.5,364.5C 447.85,359.969 447.183,355.636 445.5,351.5 Z"/></g>
<g><path style="opacity:1" fill="#565556" d="M 50.5,358.5 C 50.5,363.167 50.5,367.833 50.5,372.5C 51.5,372.5 52.5,372.5 53.5,372.5C 52.4324,373.434 51.099,373.768 49.5,373.5C 49.1795,368.305 49.5128,363.305 50.5,358.5 Z"/></g>
<g><path style="opacity:1" fill="#787378" d="M 87.5,358.5 C 88.4872,363.305 88.8205,368.305 88.5,373.5C 87.1667,373.5 85.8333,373.5 84.5,373.5C 84.5,372.5 84.5,371.5 84.5,370.5C 85.1515,371.091 85.8182,371.757 86.5,372.5C 87.4933,367.88 87.8266,363.214 87.5,358.5 Z"/></g>
<g><path style="opacity:1" fill="#570c11" d="M 460.5,358.5 C 461.487,363.305 461.821,368.305 461.5,373.5C 459.901,373.768 458.568,373.434 457.5,372.5C 458.5,372.5 459.5,372.5 460.5,372.5C 460.5,367.833 460.5,363.167 460.5,358.5 Z"/></g>
<g><path style="opacity:1" fill="#941922" d="M 423.5,358.5 C 423.173,363.214 423.507,367.88 424.5,372.5C 425.182,371.757 425.849,371.091 426.5,370.5C 426.5,371.5 426.5,372.5 426.5,373.5C 425.167,373.5 423.833,373.5 422.5,373.5C 422.179,368.305 422.513,363.305 423.5,358.5 Z"/></g>
<g><path style="opacity:1" fill="#797779" d="M 50.5,388.5 C 62.989,387.505 75.6557,387.171 88.5,387.5C 88.5,396.833 88.5,406.167 88.5,415.5C 75.5,415.5 62.5,415.5 49.5,415.5C 49.1734,406.318 49.5067,397.318 50.5,388.5 Z"/></g>
<g><path style="opacity:1" fill="#e1dee1" d="M 75.5,388.5 C 79.5,388.5 83.5,388.5 87.5,388.5C 87.5,397.167 87.5,405.833 87.5,414.5C 83.5,414.5 79.5,414.5 75.5,414.5C 75.5,405.833 75.5,397.167 75.5,388.5 Z"/></g>
<g><path style="opacity:1" fill="#f2f0f2" d="M 50.5,388.5 C 58.8333,388.5 67.1667,388.5 75.5,388.5C 75.5,397.167 75.5,405.833 75.5,414.5C 67.1667,414.5 58.8333,414.5 50.5,414.5C 50.5,405.833 50.5,397.167 50.5,388.5 Z"/></g>
<g><path style="opacity:1" fill="#f9db74" d="M 199.5,388.5 C 199.5,397.167 199.5,405.833 199.5,414.5C 203.833,414.5 208.167,414.5 212.5,414.5C 200.011,415.495 187.344,415.829 174.5,415.5C 174.5,406.5 174.5,397.5 174.5,388.5C 182.833,388.5 191.167,388.5 199.5,388.5 Z"/></g>
<g><path style="opacity:1" fill="#fccf5a" d="M 199.5,388.5 C 203.833,388.5 208.167,388.5 212.5,388.5C 212.5,397.167 212.5,405.833 212.5,414.5C 208.167,414.5 203.833,414.5 199.5,414.5C 199.5,405.833 199.5,397.167 199.5,388.5 Z"/></g>
<g><path style="opacity:0.923" fill="#000000" d="M 376.5,396.5 C 380.803,395.796 384.303,397.13 387,400.5C 387.667,425.833 387.667,451.167 387,476.5C 383.58,480.753 379.413,481.587 374.5,479C 373.107,477.829 372.273,476.329 372,474.5C 371.333,450.5 371.333,426.5 372,402.5C 372.599,399.746 374.099,397.746 376.5,396.5 Z"/></g>
<g><path style="opacity:1" fill="#812027" d="M 460.5,388.5 C 461.493,397.318 461.827,406.318 461.5,415.5C 448.5,415.5 435.5,415.5 422.5,415.5C 422.5,406.167 422.5,396.833 422.5,387.5C 435.344,387.171 448.011,387.505 460.5,388.5 Z"/></g>
<g><path style="opacity:1" fill="#fa2b39" d="M 447.5,388.5 C 451.833,388.5 456.167,388.5 460.5,388.5C 460.5,397.167 460.5,405.833 460.5,414.5C 456.167,414.5 451.833,414.5 447.5,414.5C 447.5,405.833 447.5,397.167 447.5,388.5 Z"/></g>
<g><path style="opacity:1" fill="#fc4754" d="M 447.5,388.5 C 447.5,397.167 447.5,405.833 447.5,414.5C 439.5,414.5 431.5,414.5 423.5,414.5C 423.5,405.833 423.5,397.167 423.5,388.5C 431.5,388.5 439.5,388.5 447.5,388.5 Z"/></g>
<g><path style="opacity:1" fill="#e0dce0" d="M 75.5,433.5 C 75.7839,436.777 75.4505,439.943 74.5,443C 67.5079,443.5 60.5079,443.666 53.5,443.5C 52.5041,443.586 51.6708,443.252 51,442.5C 50.5012,438.514 50.3345,434.514 50.5,430.5C 53.5641,430.144 56.2307,430.977 58.5,433C 64.1569,433.499 69.8236,433.666 75.5,433.5 Z"/></g>
<g><path style="opacity:1" fill="#beb8bf" d="M 83.5,430.5 C 84.8333,430.5 86.1667,430.5 87.5,430.5C 87.5,433.833 87.5,437.167 87.5,440.5C 87.4257,442.411 86.4257,443.578 84.5,444C 73.9917,444.825 63.6584,444.659 53.5,443.5C 60.5079,443.666 67.5079,443.5 74.5,443C 75.4505,439.943 75.7839,436.777 75.5,433.5C 78.6145,433.606 81.2812,432.606 83.5,430.5 Z"/></g>
<g><path style="opacity:1" fill="#706c70" d="M 83.5,430.5 C 84.9187,429.549 86.5853,429.216 88.5,429.5C 88.815,433.371 88.4816,437.038 87.5,440.5C 87.5,437.167 87.5,433.833 87.5,430.5C 86.1667,430.5 84.8333,430.5 83.5,430.5 Z"/></g>
<g><path style="opacity:1" fill="#f3c756" d="M 199.5,433.5 C 199.784,436.777 199.451,439.943 198.5,443C 202.152,443.499 205.818,443.665 209.5,443.5C 199.008,444.659 188.341,444.825 177.5,444C 176.667,443.167 175.833,442.333 175,441.5C 174.501,437.848 174.335,434.182 174.5,430.5C 177.564,430.144 180.231,430.977 182.5,433C 188.157,433.499 193.824,433.666 199.5,433.5 Z"/></g>
<g><path style="opacity:1" fill="#fdc143" d="M 207.5,430.5 C 208.833,430.5 210.167,430.5 211.5,430.5C 211.5,434.167 211.5,437.833 211.5,441.5C 211.167,442.5 210.5,443.167 209.5,443.5C 205.818,443.665 202.152,443.499 198.5,443C 199.451,439.943 199.784,436.777 199.5,433.5C 202.615,433.606 205.281,432.606 207.5,430.5 Z"/></g>
<g><path style="opacity:1" fill="#b98d31" d="M 207.5,430.5 C 208.919,429.549 210.585,429.216 212.5,429.5C 212.817,433.702 212.483,437.702 211.5,441.5C 211.5,437.833 211.5,434.167 211.5,430.5C 210.167,430.5 208.833,430.5 207.5,430.5 Z"/></g>
<g><path style="opacity:1" fill="#86171f" d="M 427.5,430.5 C 426.167,430.5 424.833,430.5 423.5,430.5C 423.5,434.167 423.5,437.833 423.5,441.5C 422.517,437.702 422.183,433.702 422.5,429.5C 424.415,429.216 426.081,429.549 427.5,430.5 Z"/></g>
<g><path style="opacity:1" fill="#ec2634" d="M 427.5,430.5 C 428.683,431.504 430.016,432.338 431.5,433C 438.5,433.667 445.5,433.667 452.5,433C 454.769,430.977 457.436,430.144 460.5,430.5C 460.666,434.514 460.499,438.514 460,442.5C 459.25,443.126 458.416,443.626 457.5,444C 446.833,444.667 436.167,444.667 425.5,444C 424.619,443.292 423.953,442.458 423.5,441.5C 423.5,437.833 423.5,434.167 423.5,430.5C 424.833,430.5 426.167,430.5 427.5,430.5 Z"/></g>
</svg>
