<?xml version="1.0" encoding="UTF-8"?>
<!DOCTYPE svg PUBLIC "-//W3C//DTD SVG 1.1//EN" "http://www.w3.org/Graphics/SVG/1.1/DTD/svg11.dtd">
<svg xmlns="http://www.w3.org/2000/svg" version="1.1" width="512px" height="512px" style="shape-rendering:geometricPrecision; text-rendering:geometricPrecision; image-rendering:optimizeQuality; fill-rule:evenodd; clip-rule:evenodd" xmlns:xlink="http://www.w3.org/1999/xlink">
<g><path style="opacity:0.993" fill="#a7ebff" d="M 256.5,2.5 C 264.688,27.5703 272.188,52.9037 279,78.5C 282.232,99.2829 280.565,119.616 274,139.5C 271.364,147.828 266.198,153.828 258.5,157.5C 221.631,156.299 201.631,137.299 198.5,100.5C 198.742,89.2741 201.909,78.9408 208,69.5C 221.583,48.6691 234.916,27.6691 248,6.5C 250.141,3.67919 252.975,2.34586 256.5,2.5 Z"/></g>
<g><path style="opacity:0.975" fill="#73dcff" d="M 256.5,2.5 C 259.195,2.933 261.362,4.26633 263,6.5C 277.333,29.1667 291.667,51.8333 306,74.5C 318.47,104.457 311.97,129.291 286.5,149C 277.914,154.362 268.581,157.196 258.5,157.5C 266.198,153.828 271.364,147.828 274,139.5C 280.565,119.616 282.232,99.2829 279,78.5C 272.188,52.9037 264.688,27.5703 256.5,2.5 Z"/></g>
<g><path style="opacity:0.994" fill="#a7eaff" d="M 352.5,118.5 C 354.18,120.527 355.347,122.861 356,125.5C 361.629,146.668 367.629,167.668 374,188.5C 379.15,209.703 378.484,230.703 372,251.5C 369.129,260.952 363.629,268.286 355.5,273.5C 323.471,273.239 303.638,257.573 296,226.5C 294.001,213.498 296.001,201.165 302,189.5C 316.728,167.1 331.062,144.434 345,121.5C 346.995,119.253 349.495,118.253 352.5,118.5 Z"/></g>
<g><path style="opacity:0.993" fill="#a7eaff" d="M 159.5,118.5 C 161.276,121.644 162.776,124.977 164,128.5C 169.333,147.167 174.667,165.833 180,184.5C 187.69,212.095 185.356,238.762 173,264.5C 169.897,268.114 166.397,271.114 162.5,273.5C 132.807,273.633 113.307,259.633 104,231.5C 100.277,215.534 102.61,200.534 111,186.5C 125,164.5 139,142.5 153,120.5C 154.897,118.984 157.064,118.317 159.5,118.5 Z"/></g>
<g><path style="opacity:0.977" fill="#73dcff" d="M 159.5,118.5 C 162.099,118.549 164.266,119.549 166,121.5C 179.938,144.434 194.272,167.1 209,189.5C 221.33,217.182 216.497,241.349 194.5,262C 184.96,268.935 174.294,272.768 162.5,273.5C 166.397,271.114 169.897,268.114 173,264.5C 185.356,238.762 187.69,212.095 180,184.5C 174.667,165.833 169.333,147.167 164,128.5C 162.776,124.977 161.276,121.644 159.5,118.5 Z"/></g>
<g><path style="opacity:0.978" fill="#73dcff" d="M 352.5,118.5 C 354.582,118.472 356.416,119.139 358,120.5C 372,142.5 386,164.5 400,186.5C 414.546,214.258 410.713,239.091 388.5,261C 378.831,268.613 367.831,272.779 355.5,273.5C 363.629,268.286 369.129,260.952 372,251.5C 378.484,230.703 379.15,209.703 374,188.5C 367.629,167.668 361.629,146.668 356,125.5C 355.347,122.861 354.18,120.527 352.5,118.5 Z"/></g>
<g><path style="opacity:0.994" fill="#5078a6" d="M 118.5,303.5 C 134.833,320.167 151.167,336.833 167.5,353.5C 111.5,353.5 55.5,353.5 -0.5,353.5C -0.5,323.833 -0.5,294.167 -0.5,264.5C 0.961599,263.542 2.29493,262.376 3.5,261C 25.2093,260.056 46.8759,260.39 68.5,262C 75.0578,263.946 81.0578,266.946 86.5,271C 97.3688,281.702 108.035,292.535 118.5,303.5 Z"/></g>
<g><path style="opacity:0.997" fill="#5078a6" d="M 480.5,260.5 C 480.5,291.5 480.5,322.5 480.5,353.5C 434.833,353.5 389.167,353.5 343.5,353.5C 359.833,336.833 376.167,320.167 392.5,303.5C 402.965,292.535 413.631,281.702 424.5,271C 431.313,265.762 438.979,262.428 447.5,261C 458.495,260.5 469.495,260.333 480.5,260.5 Z"/></g>
<g><path style="opacity:0.996" fill="#4e6696" d="M 480.5,260.5 C 489.506,260.334 498.506,260.5 507.5,261C 508.705,262.376 510.038,263.542 511.5,264.5C 511.5,294.167 511.5,323.833 511.5,353.5C 501.167,353.5 490.833,353.5 480.5,353.5C 480.5,322.5 480.5,291.5 480.5,260.5 Z"/></g>
<g><path style="opacity:0.98" fill="#6198dc" d="M 118.5,303.5 C 143.169,303.333 167.836,303.5 192.5,304C 200.944,305.057 208.611,308.057 215.5,313C 228.681,326.347 242.014,339.514 255.5,352.5C 268.986,339.514 282.319,326.347 295.5,313C 302.389,308.057 310.056,305.057 318.5,304C 343.164,303.5 367.831,303.333 392.5,303.5C 376.167,320.167 359.833,336.833 343.5,353.5C 314.833,353.5 286.167,353.5 257.5,353.5C 227.5,353.5 197.5,353.5 167.5,353.5C 151.167,336.833 134.833,320.167 118.5,303.5 Z"/></g>
<g><path style="opacity:1" fill="#85b767" d="M -0.5,353.5 C 55.5,353.5 111.5,353.5 167.5,353.5C 197.5,353.5 227.5,353.5 257.5,353.5C 331.665,354.499 405.998,354.833 480.5,354.5C 480.5,364.5 480.5,374.5 480.5,384.5C 416.832,384.333 353.166,384.5 289.5,385C 283.522,386.549 277.855,388.882 272.5,392C 266.664,397.004 260.997,402.171 255.5,407.5C 250.003,402.171 244.336,397.004 238.5,392C 233.145,388.882 227.478,386.549 221.5,385C 147.501,384.5 73.5008,384.333 -0.5,384.5C -0.5,374.167 -0.5,363.833 -0.5,353.5 Z"/></g>
<g><path style="opacity:1" fill="#78a76d" d="M 257.5,353.5 C 286.167,353.5 314.833,353.5 343.5,353.5C 389.167,353.5 434.833,353.5 480.5,353.5C 490.833,353.5 501.167,353.5 511.5,353.5C 511.5,363.833 511.5,374.167 511.5,384.5C 501.167,384.5 490.833,384.5 480.5,384.5C 480.5,374.5 480.5,364.5 480.5,354.5C 405.998,354.833 331.665,354.499 257.5,353.5 Z"/></g>
<g><path style="opacity:0.996" fill="#a6d888" d="M -0.5,384.5 C 73.5008,384.333 147.501,384.5 221.5,385C 227.478,386.549 233.145,388.882 238.5,392C 244.336,397.004 250.003,402.171 255.5,407.5C 263.813,418.308 274.48,425.808 287.5,430C 351.832,430.5 416.166,430.667 480.5,430.5C 480.5,438.5 480.5,446.5 480.5,454.5C 477.901,454.549 475.734,455.549 474,457.5C 472.903,461.384 472.403,465.384 472.5,469.5C 472.403,473.616 472.903,477.616 474,481.5C 475.509,483.919 477.675,484.919 480.5,484.5C 480.5,492.5 480.5,500.5 480.5,508.5C 321.5,508.667 162.5,508.5 3.5,508C 2.29493,506.624 0.961599,505.458 -0.5,504.5C -0.5,464.5 -0.5,424.5 -0.5,384.5 Z"/></g>
<g><path style="opacity:1" fill="#9ac76f" d="M 480.5,384.5 C 480.5,399.833 480.5,415.167 480.5,430.5C 416.166,430.667 351.832,430.5 287.5,430C 274.48,425.808 263.813,418.308 255.5,407.5C 260.997,402.171 266.664,397.004 272.5,392C 277.855,388.882 283.522,386.549 289.5,385C 353.166,384.5 416.832,384.333 480.5,384.5 Z"/></g>
<g><path style="opacity:1" fill="#86b867" d="M 480.5,384.5 C 490.833,384.5 501.167,384.5 511.5,384.5C 511.5,399.833 511.5,415.167 511.5,430.5C 501.167,430.5 490.833,430.5 480.5,430.5C 480.5,415.167 480.5,399.833 480.5,384.5 Z"/></g>
<g><path style="opacity:1" fill="#9ac76f" d="M 57.5,423.5 C 62.635,422.426 66.4683,424.093 69,428.5C 69.6667,435.167 69.6667,441.833 69,448.5C 66.5647,453.224 62.7314,454.724 57.5,453C 55.9512,451.786 54.7845,450.286 54,448.5C 53.3333,441.5 53.3333,434.5 54,427.5C 55.3756,426.295 56.5423,424.962 57.5,423.5 Z"/></g>
<g><path style="opacity:1" fill="#9ac76f" d="M 164.5,423.5 C 168.954,422.617 172.454,423.95 175,427.5C 175.667,434.833 175.667,442.167 175,449.5C 172.487,453.212 168.987,454.378 164.5,453C 162.667,452.5 161.5,451.333 161,449.5C 160.333,442.167 160.333,434.833 161,427.5C 162.376,426.295 163.542,424.962 164.5,423.5 Z"/></g>
<g><path style="opacity:0.998" fill="#99c66f" d="M 480.5,430.5 C 490.833,430.5 501.167,430.5 511.5,430.5C 511.5,455.167 511.5,479.833 511.5,504.5C 510.038,505.458 508.705,506.624 507.5,508C 498.506,508.5 489.506,508.666 480.5,508.5C 480.5,500.5 480.5,492.5 480.5,484.5C 483.325,484.919 485.491,483.919 487,481.5C 488.097,477.616 488.597,473.616 488.5,469.5C 488.597,465.384 488.097,461.384 487,457.5C 485.491,455.081 483.325,454.081 480.5,454.5C 480.5,446.5 480.5,438.5 480.5,430.5 Z"/></g>
<g><path style="opacity:1" fill="#9ac76f" d="M 26.5,454.5 C 31.7419,453.271 35.5752,454.937 38,459.5C 38.6667,466.167 38.6667,472.833 38,479.5C 35.5647,484.224 31.7314,485.724 26.5,484C 24.9512,482.786 23.7845,481.286 23,479.5C 22.3333,472.833 22.3333,466.167 23,459.5C 23.9973,457.677 25.1639,456.01 26.5,454.5 Z"/></g>
<g><path style="opacity:1" fill="#9ac76f" d="M 88.5,454.5 C 90.8568,454.337 93.1902,454.503 95.5,455C 97.3333,455.5 98.5,456.667 99,458.5C 99.6667,465.833 99.6667,473.167 99,480.5C 94.4276,485.812 89.7609,485.812 85,480.5C 84.3333,473.167 84.3333,465.833 85,458.5C 86.3756,457.295 87.5423,455.962 88.5,454.5 Z"/></g>
<g><path style="opacity:1" fill="#9ac76f" d="M 220.5,454.5 C 225.742,453.271 229.575,454.937 232,459.5C 232.667,466.167 232.667,472.833 232,479.5C 229.565,484.224 225.731,485.724 220.5,484C 218.951,482.786 217.785,481.286 217,479.5C 216.333,472.833 216.333,466.167 217,459.5C 217.997,457.677 219.164,456.01 220.5,454.5 Z"/></g>
<g><path style="opacity:1" fill="#9ac76f" d="M 251.5,454.5 C 256.742,453.271 260.575,454.937 263,459.5C 263.667,466.167 263.667,472.833 263,479.5C 260.565,484.224 256.731,485.724 251.5,484C 249.951,482.786 248.785,481.286 248,479.5C 247.333,472.833 247.333,466.167 248,459.5C 248.997,457.677 250.164,456.01 251.5,454.5 Z"/></g>
<g><path style="opacity:1" fill="#9ac76f" d="M 430.5,454.5 C 432.857,454.337 435.19,454.503 437.5,455C 439.333,455.5 440.5,456.667 441,458.5C 441.667,465.833 441.667,473.167 441,480.5C 438.487,484.212 434.987,485.378 430.5,484C 428.951,482.786 427.785,481.286 427,479.5C 426.333,472.5 426.333,465.5 427,458.5C 428.376,457.295 429.542,455.962 430.5,454.5 Z"/></g>
<g><path style="opacity:1" fill="#87b867" d="M 480.5,454.5 C 483.325,454.081 485.491,455.081 487,457.5C 488.097,461.384 488.597,465.384 488.5,469.5C 488.597,473.616 488.097,477.616 487,481.5C 485.491,483.919 483.325,484.919 480.5,484.5C 477.675,484.919 475.509,483.919 474,481.5C 472.903,477.616 472.403,473.616 472.5,469.5C 472.403,465.384 472.903,461.384 474,457.5C 475.734,455.549 477.901,454.549 480.5,454.5 Z"/></g>
</svg>
