<svg width="20" height="20" viewBox="0 0 20 20" fill="none" xmlns="http://www.w3.org/2000/svg">
<path d="M4.52083 14.8959C4.13699 14.8959 3.80838 14.7568 3.53502 14.4786C3.26167 14.2004 3.125 13.8742 3.125 13.5001V12.0938C3.125 11.71 3.26167 11.3814 3.53502 11.108C3.80838 10.8347 4.13699 10.698 4.52083 10.698H15.5C15.8839 10.698 16.2125 10.8347 16.4858 11.108C16.7592 11.3814 16.8958 11.71 16.8958 12.0938V13.5001C16.8958 13.8742 16.7592 14.2004 16.4858 14.4786C16.2125 14.7568 15.8839 14.8959 15.5 14.8959H4.52083ZM4.52083 9.30217C4.13699 9.30217 3.80838 9.16306 3.53502 8.88485C3.26167 8.60664 3.125 8.28047 3.125 7.90633V6.50008C3.125 6.11622 3.26167 5.78762 3.53502 5.51427C3.80838 5.24092 4.13699 5.10425 4.52083 5.10425H15.5C15.8839 5.10425 16.2125 5.24092 16.4858 5.51427C16.7592 5.78762 16.8958 6.11622 16.8958 6.50008V7.90633C16.8958 8.28047 16.7592 8.60664 16.4858 8.88485C16.2125 9.16306 15.8839 9.30217 15.5 9.30217H4.52083Z" fill="#555555"/>
</svg>
