<svg width="20" height="20" viewBox="0 0 20 20" fill="none" xmlns="http://www.w3.org/2000/svg">
<path d="M8.02075 12.8958C6.68047 12.8958 5.5329 12.4218 4.57804 11.4739C3.62318 10.526 3.14575 9.38186 3.14575 8.04159C3.14575 7.72909 3.16832 7.42874 3.21346 7.14054C3.2586 6.85235 3.35061 6.56589 3.4895 6.28117C3.53811 6.18395 3.60866 6.0959 3.70115 6.01702C3.79363 5.93816 3.89259 5.88434 3.99802 5.85556C4.10345 5.8268 4.21031 5.82911 4.31859 5.8625C4.42688 5.89589 4.52552 5.95906 4.6145 6.052L6.83325 8.27075L8.33325 6.79159L6.12492 4.58325C6.03779 4.49375 5.97782 4.39455 5.945 4.28565C5.91217 4.17676 5.90964 4.0711 5.93742 3.96867C5.96404 3.86536 6.0141 3.76488 6.08759 3.66723C6.16109 3.56958 6.25339 3.49645 6.3645 3.44784C6.63534 3.33672 6.90848 3.2586 7.18394 3.21346C7.45941 3.16832 7.73835 3.14575 8.02075 3.14575C9.37492 3.14575 10.5294 3.63013 11.4843 4.59888C12.4392 5.56763 12.9166 6.72214 12.9166 8.06242C12.9166 8.38131 12.8853 8.67591 12.8228 8.94623C12.7603 9.21656 12.6735 9.49038 12.5624 9.76767L15.9062 13.0937C16.2951 13.4822 16.4895 13.9439 16.4895 14.4788C16.4895 15.0137 16.2933 15.4687 15.901 15.8437C15.5086 16.2187 15.052 16.3992 14.5312 16.3853C14.0103 16.3714 13.5624 16.1805 13.1874 15.8124L9.91659 12.5416C9.63881 12.6527 9.33672 12.7395 9.01034 12.802C8.68395 12.8645 8.35409 12.8958 8.02075 12.8958Z" fill="#555555"/>
</svg>
