<?xml version="1.0" encoding="UTF-8"?>
<!DOCTYPE svg PUBLIC "-//W3C//DTD SVG 1.1//EN" "http://www.w3.org/Graphics/SVG/1.1/DTD/svg11.dtd">
<svg xmlns="http://www.w3.org/2000/svg" version="1.1" width="512px" height="512px" style="shape-rendering:geometricPrecision; text-rendering:geometricPrecision; image-rendering:optimizeQuality; fill-rule:evenodd; clip-rule:evenodd" xmlns:xlink="http://www.w3.org/1999/xlink">
<g><path style="opacity:0.993" fill="#04a8f2" d="M 458.5,249.5 C 455.255,257.908 449.255,263.408 440.5,266C 428.505,266.5 416.505,266.667 404.5,266.5C 399.5,266.5 394.5,266.5 389.5,266.5C 388.883,266.389 388.383,266.056 388,265.5C 384.453,255.022 380.62,244.689 376.5,234.5C 393.837,234.667 411.17,234.5 428.5,234C 431.102,233.117 433.269,231.617 435,229.5C 436.639,211.924 436.972,194.258 436,176.5C 435.215,174.714 434.049,173.214 432.5,172C 388.227,170.516 343.894,170.016 299.5,170.5C 296.638,163.248 293.971,155.915 291.5,148.5C 334.252,148.989 376.918,148.489 419.5,147C 423.259,143.257 424.426,138.757 423,133.5C 416.612,115.058 409.945,96.7251 403,78.5C 401.786,76.9512 400.286,75.7845 398.5,75C 345.833,74.3333 293.167,74.3333 240.5,75C 237.272,76.5629 235.105,79.0629 234,82.5C 226.92,100.908 220.753,119.574 215.5,138.5C 207.648,138.825 199.982,138.492 192.5,137.5C 201.301,111.599 210.801,85.9323 221,60.5C 223.383,57.7272 226.217,55.5605 229.5,54C 259.454,52.8487 289.454,52.3487 319.5,52.5C 349.546,52.3487 379.546,52.8487 409.5,54C 415.792,56.9619 419.959,61.7952 422,68.5C 434,101.833 446,135.167 458,168.5C 458.5,195.498 458.667,222.498 458.5,249.5 Z"/></g>
<g><path style="opacity:1" fill="#36474f" d="M 291.5,148.5 C 288.071,143.611 283.404,140.444 277.5,139C 256.836,138.5 236.169,138.333 215.5,138.5C 220.753,119.574 226.92,100.908 234,82.5C 235.105,79.0629 237.272,76.5629 240.5,75C 293.167,74.3333 345.833,74.3333 398.5,75C 400.286,75.7845 401.786,76.9512 403,78.5C 409.945,96.7251 416.612,115.058 423,133.5C 424.426,138.757 423.259,143.257 419.5,147C 376.918,148.489 334.252,148.989 291.5,148.5 Z"/></g>
<g><path style="opacity:0.992" fill="#26a599" d="M 192.5,137.5 C 199.982,138.492 207.648,138.825 215.5,138.5C 236.169,138.333 256.836,138.5 277.5,139C 283.404,140.444 288.071,143.611 291.5,148.5C 293.971,155.915 296.638,163.248 299.5,170.5C 306.03,188.091 312.364,205.757 318.5,223.5C 310.833,223.5 303.167,223.5 295.5,223.5C 295.66,221.801 295.494,220.134 295,218.5C 288.58,199.567 281.58,180.901 274,162.5C 273.25,161.874 272.416,161.374 271.5,161C 218.892,159.347 166.225,159.013 113.5,160C 109.781,161.263 107.281,163.763 106,167.5C 99.1021,185.787 92.9354,204.287 87.5,223C 87.3734,228.211 89.7067,231.878 94.5,234C 121.831,234.5 149.165,234.667 176.5,234.5C 173.969,241.426 171.636,248.426 169.5,255.5C 140.165,255.333 110.831,255.5 81.5,256C 78.8293,257.25 76.6626,259.083 75,261.5C 74.3333,278.5 74.3333,295.5 75,312.5C 76.1667,315.667 78.3333,317.833 81.5,319C 102.831,319.5 124.164,319.667 145.5,319.5C 143.637,325.922 141.47,332.255 139,338.5C 138.825,343.019 138.325,347.353 137.5,351.5C 127.167,351.5 116.833,351.5 106.5,351.5C 93.8289,351.667 81.1623,351.5 68.5,351C 59.8319,348.131 54.4986,342.298 52.5,333.5C 52.3334,306.831 52.5,280.165 53,253.5C 65.3333,219.5 77.6667,185.5 90,151.5C 93.0481,144.053 98.5481,139.553 106.5,138C 135.165,137.5 163.831,137.333 192.5,137.5 Z"/></g>
<g><path style="opacity:1" fill="#37474f" d="M 295.5,223.5 C 260.498,223.333 225.498,223.5 190.5,224C 184.515,225.828 179.848,229.328 176.5,234.5C 149.165,234.667 121.831,234.5 94.5,234C 89.7067,231.878 87.3734,228.211 87.5,223C 92.9354,204.287 99.1021,185.787 106,167.5C 107.281,163.763 109.781,161.263 113.5,160C 166.225,159.013 218.892,159.347 271.5,161C 272.416,161.374 273.25,161.874 274,162.5C 281.58,180.901 288.58,199.567 295,218.5C 295.494,220.134 295.66,221.801 295.5,223.5 Z"/></g>
<g><path style="opacity:1" fill="#1e88e4" d="M 299.5,170.5 C 343.894,170.016 388.227,170.516 432.5,172C 434.049,173.214 435.215,174.714 436,176.5C 436.972,194.258 436.639,211.924 435,229.5C 433.269,231.617 431.102,233.117 428.5,234C 411.17,234.5 393.837,234.667 376.5,234.5C 373.198,229.332 368.531,225.832 362.5,224C 347.837,223.5 333.17,223.333 318.5,223.5C 312.364,205.757 306.03,188.091 299.5,170.5 Z"/></g>
<g><path style="opacity:1" fill="#e0f0fc" d="M 400.5,180.5 C 413.08,180.041 421.58,185.707 426,197.5C 426.678,215.821 417.845,224.321 399.5,223C 387.242,218.391 382.075,209.558 384,196.5C 386.778,188.22 392.278,182.887 400.5,180.5 Z"/></g>
<g><path style="opacity:0.992" fill="#fe9700" d="M 295.5,223.5 C 303.167,223.5 310.833,223.5 318.5,223.5C 333.17,223.333 347.837,223.5 362.5,224C 368.531,225.832 373.198,229.332 376.5,234.5C 380.62,244.689 384.453,255.022 388,265.5C 388.383,266.056 388.883,266.389 389.5,266.5C 397.894,290.181 406.394,313.848 415,337.5C 415.5,365.165 415.667,392.831 415.5,420.5C 412.684,428.148 407.35,433.315 399.5,436C 386.66,436.169 373.993,436.669 361.5,437.5C 304.833,437.5 248.167,437.5 191.5,437.5C 178.673,436.669 165.673,436.169 152.5,436C 144.558,432.576 139.558,426.743 137.5,418.5C 137.5,396.167 137.5,373.833 137.5,351.5C 138.325,347.353 138.825,343.019 139,338.5C 141.47,332.255 143.637,325.922 145.5,319.5C 153.676,298.314 161.676,276.981 169.5,255.5C 171.636,248.426 173.969,241.426 176.5,234.5C 179.848,229.328 184.515,225.828 190.5,224C 225.498,223.5 260.498,223.333 295.5,223.5 Z"/></g>
<g><path style="opacity:1" fill="#38474e" d="M 199.5,244.5 C 251.893,244.013 304.226,244.513 356.5,246C 359.381,247.251 361.214,249.417 362,252.5C 368.333,270.167 374.667,287.833 381,305.5C 382.084,312.504 379.251,317.004 372.5,319C 308.167,319.667 243.833,319.667 179.5,319C 173.673,315.867 171.507,311.034 173,304.5C 179.333,286.833 185.667,269.167 192,251.5C 193.742,248.254 196.242,245.921 199.5,244.5 Z"/></g>
<g><path style="opacity:0.983" fill="#2d3e4f" d="M 458.5,249.5 C 458.666,259.839 458.5,270.172 458,280.5C 457.214,283.583 455.381,285.749 452.5,287C 438.5,287.667 424.5,287.667 410.5,287C 407.619,285.749 405.786,283.583 405,280.5C 404.501,275.845 404.334,271.179 404.5,266.5C 416.505,266.667 428.505,266.5 440.5,266C 449.255,263.408 455.255,257.908 458.5,249.5 Z"/></g>
<g><path style="opacity:1" fill="#04897b" d="M 169.5,255.5 C 161.676,276.981 153.676,298.314 145.5,319.5C 124.164,319.667 102.831,319.5 81.5,319C 78.3333,317.833 76.1667,315.667 75,312.5C 74.3333,295.5 74.3333,278.5 75,261.5C 76.6626,259.083 78.8293,257.25 81.5,256C 110.831,255.5 140.165,255.333 169.5,255.5 Z"/></g>
<g><path style="opacity:1" fill="#e0f0fb" d="M 99.5,266.5 C 113.059,264.523 122.225,269.856 127,282.5C 128.854,295.296 123.687,303.796 111.5,308C 93.7293,309.564 84.8959,301.397 85,283.5C 87.1973,275.478 92.0306,269.811 99.5,266.5 Z"/></g>
<g><path style="opacity:0.982" fill="#2d3e4f" d="M 52.5,333.5 C 54.4986,342.298 59.8319,348.131 68.5,351C 81.1623,351.5 93.8289,351.667 106.5,351.5C 106.666,356.511 106.499,361.511 106,366.5C 104.437,369.728 101.937,371.895 98.5,373C 85.8333,373.667 73.1667,373.667 60.5,373C 57.0629,371.895 54.5629,369.728 53,366.5C 52.5002,355.505 52.3335,344.505 52.5,333.5 Z"/></g>
<g><path style="opacity:1" fill="#ef6c00" d="M 167.5,340.5 C 240.501,340.333 313.501,340.5 386.5,341C 390,342.5 392.5,345 394,348.5C 394.667,364.5 394.667,380.5 394,396.5C 392.895,399.937 390.728,402.437 387.5,404C 313.5,404.667 239.5,404.667 165.5,404C 162.813,402.125 160.979,399.625 160,396.5C 159.333,380.167 159.333,363.833 160,347.5C 161.742,344.254 164.242,341.921 167.5,340.5 Z"/></g>
<g><path style="opacity:1" fill="#e3eff8" d="M 356.5,351.5 C 374.823,350.658 383.657,359.324 383,377.5C 378.995,389.823 370.495,395.323 357.5,394C 342.048,387.633 337.548,376.8 344,361.5C 347.44,357.223 351.607,353.89 356.5,351.5 Z"/></g>
<g><path style="opacity:1" fill="#e3f0f9" d="M 186.5,351.5 C 205.308,351.474 213.808,360.807 212,379.5C 204.34,394.207 193.173,397.707 178.5,390C 169.651,381.35 168.151,371.516 174,360.5C 177.299,356.118 181.466,353.118 186.5,351.5 Z"/></g>
<g><path style="opacity:0.983" fill="#303f4e" d="M 415.5,420.5 C 415.667,431.172 415.5,441.839 415,452.5C 413.749,455.381 411.583,457.214 408.5,458C 395.167,458.667 381.833,458.667 368.5,458C 365.272,456.437 363.105,453.937 362,450.5C 361.501,446.179 361.334,441.846 361.5,437.5C 373.993,436.669 386.66,436.169 399.5,436C 407.35,433.315 412.684,428.148 415.5,420.5 Z"/></g>
<g><path style="opacity:0.983" fill="#303e4e" d="M 137.5,418.5 C 139.558,426.743 144.558,432.576 152.5,436C 165.673,436.169 178.673,436.669 191.5,437.5C 191.666,442.511 191.499,447.511 191,452.5C 189.749,455.381 187.583,457.214 184.5,458C 171.167,458.667 157.833,458.667 144.5,458C 141.272,456.437 139.105,453.937 138,450.5C 137.5,439.839 137.333,429.172 137.5,418.5 Z"/></g>
</svg>
