<svg width="20" height="20" viewBox="0 0 20 20" fill="none" xmlns="http://www.w3.org/2000/svg">
<path d="M13.0209 15.4374V14.6249H10.7084C10.3246 14.6249 9.99595 14.4882 9.7226 14.2149C9.44925 13.9416 9.31258 13.6129 9.31258 13.2291V6.74992H7.00008V7.56242C7.00008 7.94628 6.86341 8.27488 6.59006 8.54823C6.31671 8.82158 5.98811 8.95825 5.60425 8.95825H3.56258C3.17873 8.95825 2.85013 8.8214 2.57677 8.54769C2.30342 8.27398 2.16675 7.94495 2.16675 7.56059V4.53609C2.16675 4.15172 2.30342 3.82391 2.57677 3.55265C2.85013 3.28138 3.17873 3.14575 3.56258 3.14575H5.60425C5.98811 3.14575 6.31671 3.28243 6.59006 3.55577C6.86341 3.82912 7.00008 4.15772 7.00008 4.54159V5.35409H13.0209V4.53817C13.0209 4.15242 13.1576 3.82391 13.4309 3.55265C13.7043 3.28138 14.0329 3.14575 14.4167 3.14575H16.4584C16.8423 3.14575 17.1709 3.28261 17.4442 3.55631C17.7176 3.83002 17.8542 4.15906 17.8542 4.54342V7.56792C17.8542 7.95228 17.7176 8.28009 17.4442 8.55136C17.1709 8.82262 16.8423 8.95825 16.4584 8.95825H14.4167C14.0329 8.95825 13.7043 8.82158 13.4309 8.54823C13.1576 8.27488 13.0209 7.94628 13.0209 7.56242V6.74992H10.7084V13.2291H13.0209V12.4132C13.0209 12.0274 13.1576 11.6989 13.4309 11.4276C13.7043 11.1564 14.0329 11.0208 14.4167 11.0208H16.4584C16.8423 11.0208 17.1709 11.1576 17.4442 11.4313C17.7176 11.705 17.8542 12.0341 17.8542 12.4184V15.4429C17.8542 15.8273 17.7176 16.1551 17.4442 16.4264C17.1709 16.6976 16.8423 16.8333 16.4584 16.8333H14.4167C14.0329 16.8333 13.7043 16.6966 13.4309 16.4232C13.1576 16.1499 13.0209 15.8213 13.0209 15.4374Z" fill="#555555"/>
</svg>
