<?xml version="1.0" encoding="UTF-8"?>
<!DOCTYPE svg PUBLIC "-//W3C//DTD SVG 1.1//EN" "http://www.w3.org/Graphics/SVG/1.1/DTD/svg11.dtd">
<svg xmlns="http://www.w3.org/2000/svg" version="1.1" width="512px" height="512px" style="shape-rendering:geometricPrecision; text-rendering:geometricPrecision; image-rendering:optimizeQuality; fill-rule:evenodd; clip-rule:evenodd" xmlns:xlink="http://www.w3.org/1999/xlink">
<g><path style="opacity:0.988" fill="#00cbb1" d="M 247.5,-0.5 C 256.5,-0.5 265.5,-0.5 274.5,-0.5C 276.349,0.593015 278.016,1.92635 279.5,3.5C 229.5,54.1667 179.167,104.5 128.5,154.5C 128.877,142.531 132.711,131.864 140,122.5C 140.092,92.564 148.425,65.2306 165,40.5C 180.739,21.8704 200.572,9.70375 224.5,4C 232.263,2.26571 239.929,0.765707 247.5,-0.5 Z"/></g>
<g><path style="opacity:1" fill="#00969c" d="M 279.5,3.5 C 281.562,5.41014 283.062,7.74347 284,10.5C 285.908,93.7536 245.408,138.42 162.5,144.5C 157.437,157.16 159.937,168.16 170,177.5C 173.292,193.541 166.792,200.708 150.5,199C 140.596,192.75 134.096,183.917 131,172.5C 129.406,166.601 128.572,160.601 128.5,154.5C 179.167,104.5 229.5,54.1667 279.5,3.5 Z"/></g>
<g><path style="opacity:0.983" fill="#00c0f1" d="M 511.5,162.5 C 511.5,170.833 511.5,179.167 511.5,187.5C 504.417,219.42 485.083,239.92 453.5,249C 399.204,250.645 344.87,250.979 290.5,250C 281.525,244.848 279.025,237.348 283,227.5C 284.765,224.527 287.265,222.36 290.5,221C 339.167,220.667 387.833,220.333 436.5,220C 467.903,215.929 482.403,198.096 480,166.5C 472.064,140.58 454.564,129.08 427.5,132C 410.938,136.228 399.771,146.395 394,162.5C 392.855,168.804 391.855,175.138 391,181.5C 386.652,189.915 379.819,192.748 370.5,190C 367.265,188.64 364.765,186.473 363,183.5C 359.58,145.216 375.746,118.716 411.5,104C 454.03,93.1899 485.53,107.023 506,145.5C 508.007,151.227 509.841,156.893 511.5,162.5 Z"/></g>
<g><path style="opacity:0.992" fill="#51faff" d="M 190.5,220.5 C 207.837,220.333 225.17,220.5 242.5,221C 250.915,225.348 253.748,232.181 251,241.5C 249.5,245.667 246.667,248.5 242.5,250C 225.167,250.667 207.833,250.667 190.5,250C 181.525,244.848 179.025,237.348 183,227.5C 185.015,224.588 187.515,222.255 190.5,220.5 Z"/></g>
<g><path style="opacity:0.994" fill="#51faff" d="M -0.5,301.5 C -0.5,297.5 -0.5,293.5 -0.5,289.5C 1.31481,285.521 4.31481,282.688 8.5,281C 33.1667,280.333 57.8333,280.333 82.5,281C 91.4747,286.152 93.9747,293.652 90,303.5C 88.2352,306.473 85.7352,308.64 82.5,310C 57.8333,310.667 33.1667,310.667 8.5,310C 4.31481,308.312 1.31481,305.479 -0.5,301.5 Z"/></g>
<g><path style="opacity:0.998" fill="#51faff" d="M 255.5,280.5 C 255.5,290.5 255.5,300.5 255.5,310.5C 213.832,310.667 172.165,310.5 130.5,310C 121.525,304.848 119.025,297.348 123,287.5C 124.765,284.527 127.265,282.36 130.5,281C 172.165,280.5 213.832,280.333 255.5,280.5 Z"/></g>
<g><path style="opacity:1" fill="#00c0f1" d="M 255.5,280.5 C 294.501,280.333 333.501,280.5 372.5,281C 381.475,286.152 383.975,293.652 380,303.5C 378.235,306.473 375.735,308.64 372.5,310C 333.501,310.5 294.501,310.667 255.5,310.5C 255.5,300.5 255.5,290.5 255.5,280.5 Z"/></g>
<g><path style="opacity:0.999" fill="#51faff" d="M 255.5,340.5 C 255.5,350.5 255.5,360.5 255.5,370.5C 187.166,370.667 118.833,370.5 50.5,370C 41.5253,364.848 39.0253,357.348 43,347.5C 44.7648,344.527 47.2648,342.36 50.5,341C 118.833,340.5 187.166,340.333 255.5,340.5 Z"/></g>
<g><path style="opacity:1" fill="#02c1f1" d="M 255.5,340.5 C 279.836,340.333 304.169,340.5 328.5,341C 357.404,346.569 377.237,363.069 388,390.5C 397.701,426.063 388.201,455.229 359.5,478C 336.331,491.926 311.998,494.26 286.5,485C 273.6,479.598 263.266,471.098 255.5,459.5C 255.5,439.833 255.5,420.167 255.5,400.5C 261.872,399.77 266.706,402.104 270,407.5C 271.695,414.408 273.029,421.408 274,428.5C 285.258,454.711 304.758,464.211 332.5,457C 355.375,445.748 364.209,427.581 359,402.5C 351.439,383.132 337.272,372.632 316.5,371C 296.169,370.5 275.836,370.333 255.5,370.5C 255.5,360.5 255.5,350.5 255.5,340.5 Z"/></g>
<g><path style="opacity:0.98" fill="#51faff" d="M 255.5,400.5 C 255.5,420.167 255.5,439.833 255.5,459.5C 244.416,444.73 239.916,428.063 242,409.5C 244.753,403.874 249.253,400.874 255.5,400.5 Z"/></g>
<g><path style="opacity:0.987" fill="#00607e" d="M 100.5,511.5 C 96.5,511.5 92.5,511.5 88.5,511.5C 80.2221,506.919 77.3888,499.919 80,490.5C 84.758,483.738 90.258,477.571 96.5,472C 67.1667,471.667 37.8333,471.333 8.5,471C 4.31481,469.312 1.31481,466.479 -0.5,462.5C -0.5,458.5 -0.5,454.5 -0.5,450.5C 1.31481,446.521 4.31481,443.688 8.5,442C 37.8333,441.667 67.1667,441.333 96.5,441C 90.967,435.802 85.8004,430.302 81,424.5C 76.8333,406 84,398.833 102.5,403C 119.033,417.865 134.533,433.699 149,450.5C 150.354,456.668 149.354,462.334 146,467.5C 131.242,482.761 116.075,497.428 100.5,511.5 Z"/></g>
</svg>
